  0
SECTION
  2
HEADER
  9
$ACADVER
  1
AC1009
  9
$ANGDIR
  70
0
  9
$CECOLOR
  62
256
  9
$CELTYPE
  6
BYLAYER
  9
$EXTMIN
  10
0.0
  20
0.0
  9
$EXTMAX
  10
48.8456
  20
38.5085
  9
$FILLMODE
  70
1
  9
$MIRRTEXT
  70
0
  0
ENDSEC
  0
SECTION
  2
TABLES
  0
TABLE
  2
LAYER
  70
17
  0
LAYER
  2
Drill_Top
  70
64
  62
7
  6
CONTINUOUS
  0
LAYER
  2
Edge_Top
  70
64
  62
16
  6
CONTINUOUS
  0
ENDTAB
  0
ENDSEC
  0
SECTION
  2
ENTITIES
  0
CIRCLE
  8
Drill_Top
  10
36.1881
  20
21.7072
  40
0.45
  0
CIRCLE
  8
Drill_Top
  10
39.8398
  20
21.5484
  40
0.45
  0
CIRCLE
  8
Drill_Top
  10
26.9797
  20
8.5296
  40
0.45
  0
CIRCLE
  8
Drill_Top
  10
30.6313
  20
8.5296
  40
0.45
  0
CIRCLE
  8
Drill_Top
  10
38.4109
  20
15.1978
  40
0.45
  0
CIRCLE
  8
Drill_Top
  10
43.0151
  20
15.1978
  40
0.45
  0
CIRCLE
  8
Drill_Top
  10
7.7788
  20
34.4013
  40
0.7
  0
CIRCLE
  8
Drill_Top
  10
11.2788
  20
34.4013
  40
0.7
  0
CIRCLE
  8
Drill_Top
  10
16.9774
  20
25.2001
  40
0.5
  0
CIRCLE
  8
Drill_Top
  10
6.6274
  20
25.2001
  40
0.5
  0
CIRCLE
  8
Drill_Top
  10
14.4371
  20
15.8328
  40
0.45
  0
CIRCLE
  8
Drill_Top
  10
11.9371
  20
15.8328
  40
0.45
  0
CIRCLE
  8
Drill_Top
  10
9.4371
  20
15.8328
  40
0.45
  0
CIRCLE
  8
Drill_Top
  10
32.0602
  20
22.3423
  40
0.45
  0
CIRCLE
  8
Drill_Top
  10
32.0602
  20
19.8023
  40
0.45
  0
CIRCLE
  8
Drill_Top
  10
32.0602
  20
17.2623
  40
0.45
  0
CIRCLE
  8
Drill_Top
  10
32.0602
  20
14.7223
  40
0.45
  0
CIRCLE
  8
Drill_Top
  10
24.4402
  20
14.7223
  40
0.45
  0
CIRCLE
  8
Drill_Top
  10
24.4402
  20
17.2623
  40
0.45
  0
CIRCLE
  8
Drill_Top
  10
24.4402
  20
19.8023
  40
0.45
  0
CIRCLE
  8
Drill_Top
  10
24.4402
  20
22.3423
  40
0.45
  0
CIRCLE
  8
Drill_Top
  10
8.4063
  20
6.3026
  40
0.7
  0
CIRCLE
  8
Drill_Top
  10
11.9063
  20
6.3026
  40
0.7
  0
CIRCLE
  8
Drill_Top
  10
37.9346
  20
30.1218
  40
0.3557
  0
CIRCLE
  8
Drill_Top
  10
35.3946
  20
30.1218
  40
0.3557
  0
CIRCLE
  8
Drill_Top
  10
44.6028
  20
19.802
  40
0.5
  0
CIRCLE
  8
Drill_Top
  10
44.6028
  20
30.152
  40
0.5
  0
CIRCLE
  8
Drill_Top
  10
22.693
  20
34.4085
  40
0.7
  0
CIRCLE
  8
Drill_Top
  10
26.193
  20
34.4085
  40
0.7
  0
CIRCLE
  8
Drill_Top
  10
48.0956
  20
0.75
  40
0.45
  0
POLYLINE
  8
Edge_Top
  6
CONTINUOUS
  66
1
  70
0
  40
0.203
  41
0.203
  0
VERTEX
  8
Edge_Top
  10
35.3809
  20
21.4372
  42
0
  0
VERTEX
  8
Edge_Top
  10
35.4472
  20
21.2913
  42
0
  0
VERTEX
  8
Edge_Top
  10
35.4453
  20
15.1978
  42
0
  0
VERTEX
  8
Edge_Top
  10
35.4453
  20
10.2285
  42
0
  0
VERTEX
  8
Edge_Top
  10
34.0132
  20
8.7955
  42
0
  0
VERTEX
  8
Edge_Top
  10
31.4386
  20
8.7961
  42
0
  0
VERTEX
  8
Edge_Top
  10
31.3728
  20
8.9482
  42
0
  0
VERTEX
  8
Edge_Top
  10
31.2972
  20
9.0602
  42
0
  0
VERTEX
  8
Edge_Top
  10
31.2048
  20
9.1589
  42
0
  0
VERTEX
  8
Edge_Top
  10
31.098
  20
9.2418
  42
0
  0
VERTEX
  8
Edge_Top
  10
30.9794
  20
9.3067
  42
0
  0
VERTEX
  8
Edge_Top
  10
30.852
  20
9.352
  42
0
  0
VERTEX
  8
Edge_Top
  10
30.7191
  20
9.3765
  42
0
  0
VERTEX
  8
Edge_Top
  10
30.5839
  20
9.3797
  42
0
  0
VERTEX
  8
Edge_Top
  10
30.45
  20
9.3615
  42
0
  0
VERTEX
  8
Edge_Top
  10
30.3206
  20
9.3223
  42
0
  0
VERTEX
  8
Edge_Top
  10
30.199
  20
9.2632
  42
0
  0
VERTEX
  8
Edge_Top
  10
30.0884
  20
9.1855
  42
0
  0
VERTEX
  8
Edge_Top
  10
29.9914
  20
9.0913
  42
0
  0
VERTEX
  8
Edge_Top
  10
29.9106
  20
8.983
  42
0
  0
VERTEX
  8
Edge_Top
  10
29.8479
  20
8.8632
  42
0
  0
VERTEX
  8
Edge_Top
  10
29.8049
  20
8.735
  42
0
  0
VERTEX
  8
Edge_Top
  10
29.7798
  20
8.5296
  42
0
  0
VERTEX
  8
Edge_Top
  10
29.7905
  20
8.3948
  42
0
  0
VERTEX
  8
Edge_Top
  10
29.8225
  20
8.2634
  42
0
  0
VERTEX
  8
Edge_Top
  10
29.8748
  20
8.1388
  42
0
  0
VERTEX
  8
Edge_Top
  10
29.9462
  20
8.024
  42
0
  0
VERTEX
  8
Edge_Top
  10
30.0348
  20
7.9219
  42
0
  0
VERTEX
  8
Edge_Top
  10
30.1385
  20
7.8352
  42
0
  0
VERTEX
  8
Edge_Top
  10
30.2546
  20
7.7659
  42
0
  0
VERTEX
  8
Edge_Top
  10
30.3802
  20
7.7159
  42
0
  0
VERTEX
  8
Edge_Top
  10
30.5122
  20
7.6864
  42
0
  0
VERTEX
  8
Edge_Top
  10
30.6471
  20
7.6782
  42
0
  0
VERTEX
  8
Edge_Top
  10
30.7816
  20
7.6914
  42
0
  0
VERTEX
  8
Edge_Top
  10
30.9124
  20
7.7258
  42
0
  0
VERTEX
  8
Edge_Top
  10
31.0361
  20
7.7804
  42
0
  0
VERTEX
  8
Edge_Top
  10
31.1495
  20
7.8539
  42
0
  0
VERTEX
  8
Edge_Top
  10
31.2499
  20
7.9445
  42
0
  0
VERTEX
  8
Edge_Top
  10
31.3347
  20
8.0497
  42
0
  0
VERTEX
  8
Edge_Top
  10
31.4018
  20
8.1671
  42
0
  0
VERTEX
  8
Edge_Top
  10
31.4433
  20
8.2631
  42
0
  0
VERTEX
  8
Edge_Top
  10
34.1242
  20
8.2631
  42
0
  0
VERTEX
  8
Edge_Top
  10
34.2568
  20
8.2996
  42
0
  0
VERTEX
  8
Edge_Top
  10
34.3126
  20
8.3411
  42
0
  0
VERTEX
  8
Edge_Top
  10
35.9003
  20
9.9288
  42
0
  0
VERTEX
  8
Edge_Top
  10
35.9682
  20
10.0484
  42
0
  0
VERTEX
  8
Edge_Top
  10
35.9783
  20
10.1172
  42
0
  0
VERTEX
  8
Edge_Top
  10
35.9825
  20
14.9313
  42
0
  0
VERTEX
  8
Edge_Top
  10
37.6023
  20
14.9313
  42
0
  0
VERTEX
  8
Edge_Top
  10
37.6543
  20
14.807
  42
0
  0
VERTEX
  8
Edge_Top
  10
37.7257
  20
14.6922
  42
0
  0
VERTEX
  8
Edge_Top
  10
37.8144
  20
14.5901
  42
0
  0
VERTEX
  8
Edge_Top
  10
37.9181
  20
14.5034
  42
0
  0
VERTEX
  8
Edge_Top
  10
38.0342
  20
14.4341
  42
0
  0
VERTEX
  8
Edge_Top
  10
38.1598
  20
14.3841
  42
0
  0
VERTEX
  8
Edge_Top
  10
38.2917
  20
14.3546
  42
0
  0
VERTEX
  8
Edge_Top
  10
38.4267
  20
14.3464
  42
0
  0
VERTEX
  8
Edge_Top
  10
38.5612
  20
14.3596
  42
0
  0
VERTEX
  8
Edge_Top
  10
38.692
  20
14.394
  42
0
  0
VERTEX
  8
Edge_Top
  10
38.8156
  20
14.4486
  42
0
  0
VERTEX
  8
Edge_Top
  10
38.9291
  20
14.5221
  42
0
  0
VERTEX
  8
Edge_Top
  10
39.0295
  20
14.6127
  42
0
  0
VERTEX
  8
Edge_Top
  10
39.1143
  20
14.7179
  42
0
  0
VERTEX
  8
Edge_Top
  10
39.1814
  20
14.8353
  42
0
  0
VERTEX
  8
Edge_Top
  10
39.229
  20
14.9618
  42
0
  0
VERTEX
  8
Edge_Top
  10
39.2561
  20
15.0943
  42
0
  0
VERTEX
  8
Edge_Top
  10
39.2618
  20
15.2294
  42
0
  0
VERTEX
  8
Edge_Top
  10
39.2461
  20
15.3636
  42
0
  0
VERTEX
  8
Edge_Top
  10
39.2093
  20
15.4937
  42
0
  0
VERTEX
  8
Edge_Top
  10
39.1524
  20
15.6164
  42
0
  0
VERTEX
  8
Edge_Top
  10
39.0768
  20
15.7284
  42
0
  0
VERTEX
  8
Edge_Top
  10
38.9844
  20
15.8271
  42
0
  0
VERTEX
  8
Edge_Top
  10
38.8776
  20
15.91
  42
0
  0
VERTEX
  8
Edge_Top
  10
38.759
  20
15.9749
  42
0
  0
VERTEX
  8
Edge_Top
  10
38.6316
  20
16.0202
  42
0
  0
VERTEX
  8
Edge_Top
  10
38.4986
  20
16.0447
  42
0
  0
VERTEX
  8
Edge_Top
  10
38.3635
  20
16.0479
  42
0
  0
VERTEX
  8
Edge_Top
  10
38.2295
  20
16.0297
  42
0
  0
VERTEX
  8
Edge_Top
  10
38.1001
  20
15.9905
  42
0
  0
VERTEX
  8
Edge_Top
  10
37.9786
  20
15.9314
  42
0
  0
VERTEX
  8
Edge_Top
  10
37.8679
  20
15.8537
  42
0
  0
VERTEX
  8
Edge_Top
  10
37.771
  20
15.7595
  42
0
  0
VERTEX
  8
Edge_Top
  10
37.6901
  20
15.6512
  42
0
  0
VERTEX
  8
Edge_Top
  10
37.6274
  20
15.5314
  42
0
  0
VERTEX
  8
Edge_Top
  10
37.5989
  20
15.4643
  42
0
  0
VERTEX
  8
Edge_Top
  10
35.9783
  20
15.4684
  42
0
  0
VERTEX
  8
Edge_Top
  10
35.9783
  20
20.886
  42
0
  0
VERTEX
  8
Edge_Top
  10
36.069
  20
20.8641
  42
0
  0
VERTEX
  8
Edge_Top
  10
36.2039
  20
20.8558
  42
0
  0
VERTEX
  8
Edge_Top
  10
36.3385
  20
20.8691
  42
0
  0
VERTEX
  8
Edge_Top
  10
36.4692
  20
20.9034
  42
0
  0
VERTEX
  8
Edge_Top
  10
36.5929
  20
20.9581
  42
0
  0
VERTEX
  8
Edge_Top
  10
36.7064
  20
21.0316
  42
0
  0
VERTEX
  8
Edge_Top
  10
36.8068
  20
21.1221
  42
0
  0
VERTEX
  8
Edge_Top
  10
36.8916
  20
21.2274
  42
0
  0
VERTEX
  8
Edge_Top
  10
36.9586
  20
21.3447
  42
0
  0
VERTEX
  8
Edge_Top
  10
37.0063
  20
21.4713
  42
0
  0
VERTEX
  8
Edge_Top
  10
37.0333
  20
21.6037
  42
0
  0
VERTEX
  8
Edge_Top
  10
37.039
  20
21.7388
  42
0
  0
VERTEX
  8
Edge_Top
  10
37.0233
  20
21.8731
  42
0
  0
VERTEX
  8
Edge_Top
  10
36.9865
  20
22.0032
  42
0
  0
VERTEX
  8
Edge_Top
  10
36.9296
  20
22.1258
  42
0
  0
VERTEX
  8
Edge_Top
  10
36.854
  20
22.2379
  42
0
  0
VERTEX
  8
Edge_Top
  10
36.7617
  20
22.3366
  42
0
  0
VERTEX
  8
Edge_Top
  10
36.6548
  20
22.4194
  42
0
  0
VERTEX
  8
Edge_Top
  10
36.5362
  20
22.4843
  42
0
  0
VERTEX
  8
Edge_Top
  10
36.4089
  20
22.5296
  42
0
  0
VERTEX
  8
Edge_Top
  10
36.2759
  20
22.5542
  42
0
  0
VERTEX
  8
Edge_Top
  10
36.1408
  20
22.5574
  42
0
  0
VERTEX
  8
Edge_Top
  10
36.0068
  20
22.5392
  42
0
  0
VERTEX
  8
Edge_Top
  10
35.8774
  20
22.5
  42
0
  0
VERTEX
  8
Edge_Top
  10
35.7559
  20
22.4408
  42
0
  0
VERTEX
  8
Edge_Top
  10
35.6452
  20
22.3632
  42
0
  0
VERTEX
  8
Edge_Top
  10
35.5482
  20
22.269
  42
0
  0
VERTEX
  8
Edge_Top
  10
35.4674
  20
22.1606
  42
0
  0
VERTEX
  8
Edge_Top
  10
35.4047
  20
22.0408
  42
0
  0
VERTEX
  8
Edge_Top
  10
35.3761
  20
21.9737
  42
0
  0
VERTEX
  8
Edge_Top
  10
32.9105
  20
21.9737
  42
0
  0
VERTEX
  8
Edge_Top
  10
32.9117
  20
23.1938
  42
0
  0
VERTEX
  8
Edge_Top
  10
31.2087
  20
23.1938
  42
0
  0
VERTEX
  8
Edge_Top
  10
31.2087
  20
21.4908
  42
0
  0
VERTEX
  8
Edge_Top
  10
32.5442
  20
21.4876
  42
0
  0
VERTEX
  8
Edge_Top
  10
32.6953
  20
21.4407
  42
0
  0
VERTEX
  8
Edge_Top
  10
35.3808
  20
21.4407
  42
0
  0
VERTEX
  8
Edge_Top
  10
35.3809
  20
21.4372
  42
0
  0
SEQEND
  0
POLYLINE
  8
Edge_Top
  6
CONTINUOUS
  66
1
  70
0
  40
0.203
  41
0.203
  0
VERTEX
  8
Edge_Top
  10
38.999
  20
21.4137
  42
0
  0
VERTEX
  8
Edge_Top
  10
39.0309
  20
21.2823
  42
0
  0
VERTEX
  8
Edge_Top
  10
39.0832
  20
21.1576
  42
0
  0
VERTEX
  8
Edge_Top
  10
39.1546
  20
21.0428
  42
0
  0
VERTEX
  8
Edge_Top
  10
39.2433
  20
20.9408
  42
0
  0
VERTEX
  8
Edge_Top
  10
39.347
  20
20.854
  42
0
  0
VERTEX
  8
Edge_Top
  10
39.4631
  20
20.7848
  42
0
  0
VERTEX
  8
Edge_Top
  10
39.5733
  20
20.7364
  42
0
  0
VERTEX
  8
Edge_Top
  10
39.5733
  20
7.0481
  42
0
  0
VERTEX
  8
Edge_Top
  10
38.9815
  20
6.4605
  42
0
  0
VERTEX
  8
Edge_Top
  10
38.6196
  20
6.0986
  42
0
  0
VERTEX
  8
Edge_Top
  10
31.8264
  20
6.097
  42
0
  0
VERTEX
  8
Edge_Top
  10
22.4849
  20
6.097
  42
0
  0
VERTEX
  8
Edge_Top
  10
21.0537
  20
7.5292
  42
0
  0
VERTEX
  8
Edge_Top
  10
21.0543
  20
13.504
  42
0
  0
VERTEX
  8
Edge_Top
  10
21.5504
  20
13.9956
  42
0
  0
VERTEX
  8
Edge_Top
  10
24.0594
  20
16.5046
  42
0
  0
VERTEX
  8
Edge_Top
  10
24.1891
  20
16.4486
  42
0
  0
VERTEX
  8
Edge_Top
  10
24.3211
  20
16.4191
  42
0
  0
VERTEX
  8
Edge_Top
  10
24.456
  20
16.4109
  42
0
  0
VERTEX
  8
Edge_Top
  10
24.5905
  20
16.4241
  42
0
  0
VERTEX
  8
Edge_Top
  10
24.7213
  20
16.4585
  42
0
  0
VERTEX
  8
Edge_Top
  10
24.845
  20
16.5131
  42
0
  0
VERTEX
  8
Edge_Top
  10
24.9584
  20
16.5866
  42
0
  0
VERTEX
  8
Edge_Top
  10
25.0588
  20
16.6772
  42
0
  0
VERTEX
  8
Edge_Top
  10
25.1436
  20
16.7824
  42
0
  0
VERTEX
  8
Edge_Top
  10
25.2107
  20
16.8998
  42
0
  0
VERTEX
  8
Edge_Top
  10
25.2584
  20
17.0263
  42
0
  0
VERTEX
  8
Edge_Top
  10
25.2854
  20
17.1588
  42
0
  0
VERTEX
  8
Edge_Top
  10
25.2911
  20
17.2939
  42
0
  0
VERTEX
  8
Edge_Top
  10
25.2754
  20
17.4281
  42
0
  0
VERTEX
  8
Edge_Top
  10
25.2386
  20
17.5582
  42
0
  0
VERTEX
  8
Edge_Top
  10
25.1817
  20
17.6809
  42
0
  0
VERTEX
  8
Edge_Top
  10
25.1061
  20
17.7929
  42
0
  0
VERTEX
  8
Edge_Top
  10
25.0137
  20
17.8916
  42
0
  0
VERTEX
  8
Edge_Top
  10
24.9069
  20
17.9745
  42
0
  0
VERTEX
  8
Edge_Top
  10
24.7883
  20
18.0394
  42
0
  0
VERTEX
  8
Edge_Top
  10
24.6609
  20
18.0847
  42
0
  0
VERTEX
  8
Edge_Top
  10
24.528
  20
18.1092
  42
0
  0
VERTEX
  8
Edge_Top
  10
24.3928
  20
18.1124
  42
0
  0
VERTEX
  8
Edge_Top
  10
24.2589
  20
18.0942
  42
0
  0
VERTEX
  8
Edge_Top
  10
24.1295
  20
18.055
  42
0
  0
VERTEX
  8
Edge_Top
  10
24.0079
  20
17.9959
  42
0
  0
VERTEX
  8
Edge_Top
  10
23.8973
  20
17.9182
  42
0
  0
VERTEX
  8
Edge_Top
  10
23.8003
  20
17.824
  42
0
  0
VERTEX
  8
Edge_Top
  10
23.7195
  20
17.7157
  42
0
  0
VERTEX
  8
Edge_Top
  10
23.6568
  20
17.5959
  42
0
  0
VERTEX
  8
Edge_Top
  10
23.6282
  20
17.5288
  42
0
  0
VERTEX
  8
Edge_Top
  10
18.4068
  20
17.5288
  42
0
  0
VERTEX
  8
Edge_Top
  10
18.2742
  20
17.4922
  42
0
  0
VERTEX
  8
Edge_Top
  10
18.2184
  20
17.4507
  42
0
  0
VERTEX
  8
Edge_Top
  10
16.8646
  20
16.097
  42
0
  0
VERTEX
  8
Edge_Top
  10
15.2899
  20
16.0993
  42
0
  0
VERTEX
  8
Edge_Top
  10
15.2886
  20
16.6843
  42
0
  0
VERTEX
  8
Edge_Top
  10
13.5856
  20
16.6843
  42
0
  0
VERTEX
  8
Edge_Top
  10
13.5856
  20
14.9813
  42
0
  0
VERTEX
  8
Edge_Top
  10
15.2886
  20
14.9813
  42
0
  0
VERTEX
  8
Edge_Top
  10
15.2886
  20
15.5692
  42
0
  0
VERTEX
  8
Edge_Top
  10
16.9774
  20
15.5663
  42
0
  0
VERTEX
  8
Edge_Top
  10
17.11
  20
15.6029
  42
0
  0
VERTEX
  8
Edge_Top
  10
17.1658
  20
15.6444
  42
0
  0
VERTEX
  8
Edge_Top
  10
18.5196
  20
16.9981
  42
0
  0
VERTEX
  8
Edge_Top
  10
20.0308
  20
16.9958
  42
0
  0
VERTEX
  8
Edge_Top
  10
23.6298
  20
16.9958
  42
0
  0
VERTEX
  8
Edge_Top
  10
23.6776
  20
16.8765
  42
0
  0
VERTEX
  8
Edge_Top
  10
20.5993
  20
13.7983
  42
0
  0
VERTEX
  8
Edge_Top
  10
20.5314
  20
13.6787
  42
0
  0
VERTEX
  8
Edge_Top
  10
20.5213
  20
13.6098
  42
0
  0
VERTEX
  8
Edge_Top
  10
20.5213
  20
7.4182
  42
0
  0
VERTEX
  8
Edge_Top
  10
20.5578
  20
7.2856
  42
0
  0
VERTEX
  8
Edge_Top
  10
20.5993
  20
7.2298
  42
0
  0
VERTEX
  8
Edge_Top
  10
22.187
  20
5.6421
  42
0
  0
VERTEX
  8
Edge_Top
  10
22.3066
  20
5.5741
  42
0
  0
VERTEX
  8
Edge_Top
  10
22.3754
  20
5.564
  42
0
  0
VERTEX
  8
Edge_Top
  10
38.7284
  20
5.564
  42
0
  0
VERTEX
  8
Edge_Top
  10
38.861
  20
5.6006
  42
0
  0
VERTEX
  8
Edge_Top
  10
38.9168
  20
5.6421
  42
0
  0
VERTEX
  8
Edge_Top
  10
40.0282
  20
6.7535
  42
0
  0
VERTEX
  8
Edge_Top
  10
40.0962
  20
6.8731
  42
0
  0
VERTEX
  8
Edge_Top
  10
40.1063
  20
6.9419
  42
0
  0
VERTEX
  8
Edge_Top
  10
40.1063
  20
20.7417
  42
0
  0
VERTEX
  8
Edge_Top
  10
40.2445
  20
20.7993
  42
0
  0
VERTEX
  8
Edge_Top
  10
40.358
  20
20.8728
  42
0
  0
VERTEX
  8
Edge_Top
  10
40.4584
  20
20.9633
  42
0
  0
VERTEX
  8
Edge_Top
  10
40.5432
  20
21.0686
  42
0
  0
VERTEX
  8
Edge_Top
  10
40.6103
  20
21.186
  42
0
  0
VERTEX
  8
Edge_Top
  10
40.6579
  20
21.3125
  42
0
  0
VERTEX
  8
Edge_Top
  10
40.685
  20
21.445
  42
0
  0
VERTEX
  8
Edge_Top
  10
40.6907
  20
21.58
  42
0
  0
VERTEX
  8
Edge_Top
  10
40.675
  20
21.7143
  42
0
  0
VERTEX
  8
Edge_Top
  10
40.6382
  20
21.8444
  42
0
  0
VERTEX
  8
Edge_Top
  10
40.5813
  20
21.967
  42
0
  0
VERTEX
  8
Edge_Top
  10
40.5057
  20
22.0791
  42
0
  0
VERTEX
  8
Edge_Top
  10
40.4133
  20
22.1778
  42
0
  0
VERTEX
  8
Edge_Top
  10
40.3065
  20
22.2606
  42
0
  0
VERTEX
  8
Edge_Top
  10
40.1879
  20
22.3255
  42
0
  0
VERTEX
  8
Edge_Top
  10
40.1063
  20
22.3604
  42
0
  0
VERTEX
  8
Edge_Top
  10
40.1063
  20
23.2949
  42
0
  0
VERTEX
  8
Edge_Top
  10
40.0697
  20
23.4275
  42
0
  0
VERTEX
  8
Edge_Top
  10
40.0282
  20
23.4833
  42
0
  0
VERTEX
  8
Edge_Top
  10
38.4405
  20
25.071
  42
0
  0
VERTEX
  8
Edge_Top
  10
38.3209
  20
25.1389
  42
0
  0
VERTEX
  8
Edge_Top
  10
38.2521
  20
25.149
  42
0
  0
VERTEX
  8
Edge_Top
  10
31.4251
  20
25.149
  42
0
  0
VERTEX
  8
Edge_Top
  10
31.2925
  20
25.1125
  42
0
  0
VERTEX
  8
Edge_Top
  10
31.2367
  20
25.071
  42
0
  0
VERTEX
  8
Edge_Top
  10
29.649
  20
23.4833
  42
0
  0
VERTEX
  8
Edge_Top
  10
29.5811
  20
23.3637
  42
0
  0
VERTEX
  8
Edge_Top
  10
29.571
  20
23.2949
  42
0
  0
VERTEX
  8
Edge_Top
  10
29.571
  20
21.0721
  42
0
  0
VERTEX
  8
Edge_Top
  10
29.6075
  20
20.9395
  42
0
  0
VERTEX
  8
Edge_Top
  10
29.649
  20
20.8837
  42
0
  0
VERTEX
  8
Edge_Top
  10
30.9189
  20
19.6138
  42
0
  0
VERTEX
  8
Edge_Top
  10
31.0385
  20
19.5459
  42
0
  0
VERTEX
  8
Edge_Top
  10
31.1073
  20
19.5358
  42
0
  0
VERTEX
  8
Edge_Top
  10
31.2554
  20
19.5358
  42
0
  0
VERTEX
  8
Edge_Top
  10
31.3037
  20
19.4115
  42
0
  0
VERTEX
  8
Edge_Top
  10
31.3751
  20
19.2967
  42
0
  0
VERTEX
  8
Edge_Top
  10
31.4637
  20
19.1946
  42
0
  0
VERTEX
  8
Edge_Top
  10
31.5674
  20
19.1079
  42
0
  0
VERTEX
  8
Edge_Top
  10
31.6835
  20
19.0386
  42
0
  0
VERTEX
  8
Edge_Top
  10
31.8091
  20
18.9886
  42
0
  0
VERTEX
  8
Edge_Top
  10
31.9411
  20
18.9591
  42
0
  0
VERTEX
  8
Edge_Top
  10
32.076
  20
18.9509
  42
0
  0
VERTEX
  8
Edge_Top
  10
32.2105
  20
18.9641
  42
0
  0
VERTEX
  8
Edge_Top
  10
32.3413
  20
18.9985
  42
0
  0
VERTEX
  8
Edge_Top
  10
32.465
  20
19.0531
  42
0
  0
VERTEX
  8
Edge_Top
  10
32.5784
  20
19.1266
  42
0
  0
VERTEX
  8
Edge_Top
  10
32.6788
  20
19.2172
  42
0
  0
VERTEX
  8
Edge_Top
  10
32.7636
  20
19.3224
  42
0
  0
VERTEX
  8
Edge_Top
  10
32.8307
  20
19.4398
  42
0
  0
VERTEX
  8
Edge_Top
  10
32.8784
  20
19.5663
  42
0
  0
VERTEX
  8
Edge_Top
  10
32.9054
  20
19.6988
  42
0
  0
VERTEX
  8
Edge_Top
  10
32.9111
  20
19.8339
  42
0
  0
VERTEX
  8
Edge_Top
  10
32.8954
  20
19.9681
  42
0
  0
VERTEX
  8
Edge_Top
  10
32.8586
  20
20.0982
  42
0
  0
VERTEX
  8
Edge_Top
  10
32.8017
  20
20.2209
  42
0
  0
VERTEX
  8
Edge_Top
  10
32.7261
  20
20.3329
  42
0
  0
VERTEX
  8
Edge_Top
  10
32.6337
  20
20.4316
  42
0
  0
VERTEX
  8
Edge_Top
  10
32.5269
  20
20.5145
  42
0
  0
VERTEX
  8
Edge_Top
  10
32.4083
  20
20.5794
  42
0
  0
VERTEX
  8
Edge_Top
  10
32.2809
  20
20.6247
  42
0
  0
VERTEX
  8
Edge_Top
  10
32.148
  20
20.6492
  42
0
  0
VERTEX
  8
Edge_Top
  10
32.0128
  20
20.6524
  42
0
  0
VERTEX
  8
Edge_Top
  10
31.8789
  20
20.6342
  42
0
  0
VERTEX
  8
Edge_Top
  10
31.7495
  20
20.595
  42
0
  0
VERTEX
  8
Edge_Top
  10
31.6279
  20
20.5359
  42
0
  0
VERTEX
  8
Edge_Top
  10
31.5173
  20
20.4582
  42
0
  0
VERTEX
  8
Edge_Top
  10
31.4203
  20
20.364
  42
0
  0
VERTEX
  8
Edge_Top
  10
31.3395
  20
20.2557
  42
0
  0
VERTEX
  8
Edge_Top
  10
31.2768
  20
20.1359
  42
0
  0
VERTEX
  8
Edge_Top
  10
31.2482
  20
20.0688
  42
0
  0
VERTEX
  8
Edge_Top
  10
31.2186
  20
20.0688
  42
0
  0
VERTEX
  8
Edge_Top
  10
30.1026
  20
21.1839
  42
0
  0
VERTEX
  8
Edge_Top
  10
30.104
  20
23.1825
  42
0
  0
VERTEX
  8
Edge_Top
  10
31.5361
  20
24.6166
  42
0
  0
VERTEX
  8
Edge_Top
  10
38.1453
  20
24.616
  42
0
  0
VERTEX
  8
Edge_Top
  10
39.0206
  20
23.7371
  42
0
  0
VERTEX
  8
Edge_Top
  10
39.5738
  20
23.1839
  42
0
  0
VERTEX
  8
Edge_Top
  10
39.5733
  20
22.3602
  42
0
  0
VERTEX
  8
Edge_Top
  10
39.4075
  20
22.282
  42
0
  0
VERTEX
  8
Edge_Top
  10
39.2968
  20
22.2044
  42
0
  0
VERTEX
  8
Edge_Top
  10
39.1999
  20
22.1102
  42
0
  0
VERTEX
  8
Edge_Top
  10
39.119
  20
22.0018
  42
0
  0
VERTEX
  8
Edge_Top
  10
39.0563
  20
21.882
  42
0
  0
VERTEX
  8
Edge_Top
  10
39.0134
  20
21.7539
  42
0
  0
VERTEX
  8
Edge_Top
  10
38.9883
  20
21.5484
  42
0
  0
VERTEX
  8
Edge_Top
  10
38.999
  20
21.4137
  42
0
  0
SEQEND
  0
POLYLINE
  8
Edge_Top
  6
CONTINUOUS
  66
1
  70
0
  40
0.203
  41
0.203
  0
VERTEX
  8
Edge_Top
  10
26.1725
  20
8.2595
  42
0
  0
VERTEX
  8
Edge_Top
  10
26.2231
  20
8.1388
  42
0
  0
VERTEX
  8
Edge_Top
  10
26.2945
  20
8.024
  42
0
  0
VERTEX
  8
Edge_Top
  10
26.3832
  20
7.9219
  42
0
  0
VERTEX
  8
Edge_Top
  10
26.4869
  20
7.8352
  42
0
  0
VERTEX
  8
Edge_Top
  10
26.603
  20
7.7659
  42
0
  0
VERTEX
  8
Edge_Top
  10
26.7286
  20
7.7159
  42
0
  0
VERTEX
  8
Edge_Top
  10
26.8605
  20
7.6864
  42
0
  0
VERTEX
  8
Edge_Top
  10
26.9955
  20
7.6782
  42
0
  0
VERTEX
  8
Edge_Top
  10
27.13
  20
7.6914
  42
0
  0
VERTEX
  8
Edge_Top
  10
27.2608
  20
7.7258
  42
0
  0
VERTEX
  8
Edge_Top
  10
27.3844
  20
7.7804
  42
0
  0
VERTEX
  8
Edge_Top
  10
27.4979
  20
7.8539
  42
0
  0
VERTEX
  8
Edge_Top
  10
27.5983
  20
7.9445
  42
0
  0
VERTEX
  8
Edge_Top
  10
27.6831
  20
8.0497
  42
0
  0
VERTEX
  8
Edge_Top
  10
27.7502
  20
8.1671
  42
0
  0
VERTEX
  8
Edge_Top
  10
27.7978
  20
8.2936
  42
0
  0
VERTEX
  8
Edge_Top
  10
27.8249
  20
8.4261
  42
0
  0
VERTEX
  8
Edge_Top
  10
27.8306
  20
8.5612
  42
0
  0
VERTEX
  8
Edge_Top
  10
27.8149
  20
8.6954
  42
0
  0
VERTEX
  8
Edge_Top
  10
27.7781
  20
8.8255
  42
0
  0
VERTEX
  8
Edge_Top
  10
27.7212
  20
8.9482
  42
0
  0
VERTEX
  8
Edge_Top
  10
27.6456
  20
9.0602
  42
0
  0
VERTEX
  8
Edge_Top
  10
27.5532
  20
9.1589
  42
0
  0
VERTEX
  8
Edge_Top
  10
27.4464
  20
9.2418
  42
0
  0
VERTEX
  8
Edge_Top
  10
27.3278
  20
9.3067
  42
0
  0
VERTEX
  8
Edge_Top
  10
27.2004
  20
9.352
  42
0
  0
VERTEX
  8
Edge_Top
  10
27.0674
  20
9.3765
  42
0
  0
VERTEX
  8
Edge_Top
  10
26.9323
  20
9.3797
  42
0
  0
VERTEX
  8
Edge_Top
  10
26.7983
  20
9.3615
  42
0
  0
VERTEX
  8
Edge_Top
  10
26.6689
  20
9.3223
  42
0
  0
VERTEX
  8
Edge_Top
  10
26.5474
  20
9.2632
  42
0
  0
VERTEX
  8
Edge_Top
  10
26.4367
  20
9.1855
  42
0
  0
VERTEX
  8
Edge_Top
  10
26.3398
  20
9.0913
  42
0
  0
VERTEX
  8
Edge_Top
  10
26.2589
  20
8.983
  42
0
  0
VERTEX
  8
Edge_Top
  10
26.1962
  20
8.8632
  42
0
  0
VERTEX
  8
Edge_Top
  10
26.1677
  20
8.7961
  42
0
  0
VERTEX
  8
Edge_Top
  10
24.0742
  20
8.7961
  42
0
  0
VERTEX
  8
Edge_Top
  10
23.1198
  20
9.7497
  42
0
  0
VERTEX
  8
Edge_Top
  10
23.1182
  20
12.3857
  42
0
  0
VERTEX
  8
Edge_Top
  10
24.6197
  20
13.8898
  42
0
  0
VERTEX
  8
Edge_Top
  10
24.7213
  20
13.9185
  42
0
  0
VERTEX
  8
Edge_Top
  10
24.845
  20
13.9731
  42
0
  0
VERTEX
  8
Edge_Top
  10
24.9584
  20
14.0466
  42
0
  0
VERTEX
  8
Edge_Top
  10
25.0588
  20
14.1372
  42
0
  0
VERTEX
  8
Edge_Top
  10
25.1436
  20
14.2424
  42
0
  0
VERTEX
  8
Edge_Top
  10
25.2107
  20
14.3598
  42
0
  0
VERTEX
  8
Edge_Top
  10
25.2584
  20
14.4863
  42
0
  0
VERTEX
  8
Edge_Top
  10
25.2854
  20
14.6188
  42
0
  0
VERTEX
  8
Edge_Top
  10
25.2911
  20
14.7539
  42
0
  0
VERTEX
  8
Edge_Top
  10
25.2754
  20
14.8881
  42
0
  0
VERTEX
  8
Edge_Top
  10
25.2386
  20
15.0182
  42
0
  0
VERTEX
  8
Edge_Top
  10
25.1817
  20
15.1409
  42
0
  0
VERTEX
  8
Edge_Top
  10
25.1061
  20
15.2529
  42
0
  0
VERTEX
  8
Edge_Top
  10
25.0137
  20
15.3516
  42
0
  0
VERTEX
  8
Edge_Top
  10
24.9069
  20
15.4345
  42
0
  0
VERTEX
  8
Edge_Top
  10
24.7883
  20
15.4994
  42
0
  0
VERTEX
  8
Edge_Top
  10
24.6609
  20
15.5447
  42
0
  0
VERTEX
  8
Edge_Top
  10
24.528
  20
15.5692
  42
0
  0
VERTEX
  8
Edge_Top
  10
24.3928
  20
15.5724
  42
0
  0
VERTEX
  8
Edge_Top
  10
24.2589
  20
15.5542
  42
0
  0
VERTEX
  8
Edge_Top
  10
24.1295
  20
15.515
  42
0
  0
VERTEX
  8
Edge_Top
  10
24.0079
  20
15.4559
  42
0
  0
VERTEX
  8
Edge_Top
  10
23.8973
  20
15.3782
  42
0
  0
VERTEX
  8
Edge_Top
  10
23.8003
  20
15.284
  42
0
  0
VERTEX
  8
Edge_Top
  10
23.7195
  20
15.1757
  42
0
  0
VERTEX
  8
Edge_Top
  10
23.6568
  20
15.0559
  42
0
  0
VERTEX
  8
Edge_Top
  10
23.6138
  20
14.9277
  42
0
  0
VERTEX
  8
Edge_Top
  10
23.5887
  20
14.7223
  42
0
  0
VERTEX
  8
Edge_Top
  10
23.5994
  20
14.5875
  42
0
  0
VERTEX
  8
Edge_Top
  10
23.6314
  20
14.4561
  42
0
  0
VERTEX
  8
Edge_Top
  10
23.6837
  20
14.3315
  42
0
  0
VERTEX
  8
Edge_Top
  10
23.7551
  20
14.2167
  42
0
  0
VERTEX
  8
Edge_Top
  10
23.8437
  20
14.1146
  42
0
  0
VERTEX
  8
Edge_Top
  10
23.9801
  20
14.0084
  42
0
  0
VERTEX
  8
Edge_Top
  10
23.4862
  20
13.5101
  42
0
  0
VERTEX
  8
Edge_Top
  10
22.6633
  20
12.6872
  42
0
  0
VERTEX
  8
Edge_Top
  10
22.5953
  20
12.5676
  42
0
  0
VERTEX
  8
Edge_Top
  10
22.5852
  20
12.4987
  42
0
  0
VERTEX
  8
Edge_Top
  10
22.5852
  20
9.6409
  42
0
  0
VERTEX
  8
Edge_Top
  10
22.6218
  20
9.5083
  42
0
  0
VERTEX
  8
Edge_Top
  10
22.6633
  20
9.4525
  42
0
  0
VERTEX
  8
Edge_Top
  10
23.7747
  20
8.3411
  42
0
  0
VERTEX
  8
Edge_Top
  10
23.8943
  20
8.2732
  42
0
  0
VERTEX
  8
Edge_Top
  10
23.9631
  20
8.2631
  42
0
  0
VERTEX
  8
Edge_Top
  10
26.175
  20
8.2631
  42
0
  0
VERTEX
  8
Edge_Top
  10
26.1725
  20
8.2595
  42
0
  0
SEQEND
  0
POLYLINE
  8
Edge_Top
  6
CONTINUOUS
  66
1
  70
0
  40
0.203
  41
0.203
  0
VERTEX
  8
Edge_Top
  10
42.1743
  20
15.063
  42
0
  0
VERTEX
  8
Edge_Top
  10
42.2063
  20
14.9316
  42
0
  0
VERTEX
  8
Edge_Top
  10
42.2586
  20
14.807
  42
0
  0
VERTEX
  8
Edge_Top
  10
42.33
  20
14.6922
  42
0
  0
VERTEX
  8
Edge_Top
  10
42.4186
  20
14.5901
  42
0
  0
VERTEX
  8
Edge_Top
  10
42.5223
  20
14.5034
  42
0
  0
VERTEX
  8
Edge_Top
  10
42.6384
  20
14.4341
  42
0
  0
VERTEX
  8
Edge_Top
  10
42.7486
  20
14.3858
  42
0
  0
VERTEX
  8
Edge_Top
  10
42.7486
  20
7.5134
  42
0
  0
VERTEX
  8
Edge_Top
  10
42.3482
  20
7.1176
  42
0
  0
VERTEX
  8
Edge_Top
  10
39.1035
  20
3.873
  42
0
  0
VERTEX
  8
Edge_Top
  10
37.8579
  20
3.8703
  42
0
  0
VERTEX
  8
Edge_Top
  10
18.8394
  20
3.8703
  42
0
  0
VERTEX
  8
Edge_Top
  10
17.8683
  20
4.8449
  42
0
  0
VERTEX
  8
Edge_Top
  10
15.9047
  20
6.8085
  42
0
  0
VERTEX
  8
Edge_Top
  10
15.7851
  20
6.8765
  42
0
  0
VERTEX
  8
Edge_Top
  10
15.7163
  20
6.8866
  42
0
  0
VERTEX
  8
Edge_Top
  10
13.0984
  20
6.8866
  42
0
  0
VERTEX
  8
Edge_Top
  10
13.0454
  20
7.0208
  42
0
  0
VERTEX
  8
Edge_Top
  10
12.9829
  20
7.1407
  42
0
  0
VERTEX
  8
Edge_Top
  10
12.9077
  20
7.2532
  42
0
  0
VERTEX
  8
Edge_Top
  10
12.8208
  20
7.3569
  42
0
  0
VERTEX
  8
Edge_Top
  10
12.7233
  20
7.4506
  42
0
  0
VERTEX
  8
Edge_Top
  10
12.6162
  20
7.5332
  42
0
  0
VERTEX
  8
Edge_Top
  10
12.5008
  20
7.6038
  42
0
  0
VERTEX
  8
Edge_Top
  10
12.3785
  20
7.6616
  42
0
  0
VERTEX
  8
Edge_Top
  10
12.2507
  20
7.7057
  42
0
  0
VERTEX
  8
Edge_Top
  10
12.1188
  20
7.7359
  42
0
  0
VERTEX
  8
Edge_Top
  10
11.9844
  20
7.7516
  42
0
  0
VERTEX
  8
Edge_Top
  10
11.8492
  20
7.7528
  42
0
  0
VERTEX
  8
Edge_Top
  10
11.7146
  20
7.7393
  42
0
  0
VERTEX
  8
Edge_Top
  10
11.5822
  20
7.7114
  42
0
  0
VERTEX
  8
Edge_Top
  10
11.4537
  20
7.6694
  42
0
  0
VERTEX
  8
Edge_Top
  10
11.3304
  20
7.6137
  42
0
  0
VERTEX
  8
Edge_Top
  10
11.2138
  20
7.545
  42
0
  0
VERTEX
  8
Edge_Top
  10
11.1053
  20
7.4642
  42
0
  0
VERTEX
  8
Edge_Top
  10
11.0062
  20
7.3722
  42
0
  0
VERTEX
  8
Edge_Top
  10
10.9176
  20
7.2699
  42
0
  0
VERTEX
  8
Edge_Top
  10
10.8406
  20
7.1588
  42
0
  0
VERTEX
  8
Edge_Top
  10
10.776
  20
7.0399
  42
0
  0
VERTEX
  8
Edge_Top
  10
10.7246
  20
6.9148
  42
0
  0
VERTEX
  8
Edge_Top
  10
10.687
  20
6.7849
  42
0
  0
VERTEX
  8
Edge_Top
  10
10.6637
  20
6.6516
  42
0
  0
VERTEX
  8
Edge_Top
  10
10.6548
  20
6.3672
  42
0
  0
VERTEX
  8
Edge_Top
  10
10.659
  20
6.1026
  42
0
  0
VERTEX
  8
Edge_Top
  10
10.6621
  20
5.9675
  42
0
  0
VERTEX
  8
Edge_Top
  10
10.6839
  20
5.834
  42
0
  0
VERTEX
  8
Edge_Top
  10
10.72
  20
5.7037
  42
0
  0
VERTEX
  8
Edge_Top
  10
10.77
  20
5.578
  42
0
  0
VERTEX
  8
Edge_Top
  10
10.8333
  20
5.4584
  42
0
  0
VERTEX
  8
Edge_Top
  10
10.9091
  20
5.3464
  42
0
  0
VERTEX
  8
Edge_Top
  10
10.9965
  20
5.2431
  42
0
  0
VERTEX
  8
Edge_Top
  10
11.0946
  20
5.15
  42
0
  0
VERTEX
  8
Edge_Top
  10
11.2021
  20
5.0679
  42
0
  0
VERTEX
  8
Edge_Top
  10
11.3179
  20
4.998
  42
0
  0
VERTEX
  8
Edge_Top
  10
11.4406
  20
4.9409
  42
0
  0
VERTEX
  8
Edge_Top
  10
11.5687
  20
4.8975
  42
0
  0
VERTEX
  8
Edge_Top
  10
11.7007
  20
4.8681
  42
0
  0
VERTEX
  8
Edge_Top
  10
11.8351
  20
4.8531
  42
0
  0
VERTEX
  8
Edge_Top
  10
11.9704
  20
4.8527
  42
0
  0
VERTEX
  8
Edge_Top
  10
12.1049
  20
4.8669
  42
0
  0
VERTEX
  8
Edge_Top
  10
12.2371
  20
4.8956
  42
0
  0
VERTEX
  8
Edge_Top
  10
12.3654
  20
4.9383
  42
0
  0
VERTEX
  8
Edge_Top
  10
12.4884
  20
4.9947
  42
0
  0
VERTEX
  8
Edge_Top
  10
12.6046
  20
5.064
  42
0
  0
VERTEX
  8
Edge_Top
  10
12.7126
  20
5.1454
  42
0
  0
VERTEX
  8
Edge_Top
  10
12.8112
  20
5.238
  42
0
  0
VERTEX
  8
Edge_Top
  10
12.8992
  20
5.3408
  42
0
  0
VERTEX
  8
Edge_Top
  10
12.9756
  20
5.4524
  42
0
  0
VERTEX
  8
Edge_Top
  10
13.0395
  20
5.5716
  42
0
  0
VERTEX
  8
Edge_Top
  10
13.0902
  20
5.697
  42
0
  0
VERTEX
  8
Edge_Top
  10
13.1271
  20
5.8271
  42
0
  0
VERTEX
  8
Edge_Top
  10
13.1497
  20
5.9605
  42
0
  0
VERTEX
  8
Edge_Top
  10
13.1578
  20
6.2379
  42
0
  0
VERTEX
  8
Edge_Top
  10
13.1578
  20
6.3521
  42
0
  0
VERTEX
  8
Edge_Top
  10
15.6029
  20
6.3536
  42
0
  0
VERTEX
  8
Edge_Top
  10
17.2503
  20
4.7091
  42
0
  0
VERTEX
  8
Edge_Top
  10
18.5441
  20
3.4154
  42
0
  0
VERTEX
  8
Edge_Top
  10
18.6637
  20
3.3474
  42
0
  0
VERTEX
  8
Edge_Top
  10
18.7325
  20
3.3373
  42
0
  0
VERTEX
  8
Edge_Top
  10
39.2113
  20
3.3373
  42
0
  0
VERTEX
  8
Edge_Top
  10
39.3439
  20
3.3739
  42
0
  0
VERTEX
  8
Edge_Top
  10
39.3997
  20
3.4154
  42
0
  0
VERTEX
  8
Edge_Top
  10
43.2035
  20
7.2192
  42
0
  0
VERTEX
  8
Edge_Top
  10
43.2715
  20
7.3388
  42
0
  0
VERTEX
  8
Edge_Top
  10
43.2816
  20
7.4077
  42
0
  0
VERTEX
  8
Edge_Top
  10
43.2816
  20
14.39
  42
0
  0
VERTEX
  8
Edge_Top
  10
43.4199
  20
14.4486
  42
0
  0
VERTEX
  8
Edge_Top
  10
43.5333
  20
14.5221
  42
0
  0
VERTEX
  8
Edge_Top
  10
43.6337
  20
14.6127
  42
0
  0
VERTEX
  8
Edge_Top
  10
43.7185
  20
14.7179
  42
0
  0
VERTEX
  8
Edge_Top
  10
43.7856
  20
14.8353
  42
0
  0
VERTEX
  8
Edge_Top
  10
43.8333
  20
14.9618
  42
0
  0
VERTEX
  8
Edge_Top
  10
43.8603
  20
15.0943
  42
0
  0
VERTEX
  8
Edge_Top
  10
43.866
  20
15.2294
  42
0
  0
VERTEX
  8
Edge_Top
  10
43.8503
  20
15.3636
  42
0
  0
VERTEX
  8
Edge_Top
  10
43.8135
  20
15.4937
  42
0
  0
VERTEX
  8
Edge_Top
  10
43.7777
  20
15.5835
  42
0
  0
VERTEX
  8
Edge_Top
  10
44.7912
  20
16.597
  42
0
  0
VERTEX
  8
Edge_Top
  10
44.8592
  20
16.7166
  42
0
  0
VERTEX
  8
Edge_Top
  10
44.8693
  20
16.7854
  42
0
  0
VERTEX
  8
Edge_Top
  10
44.8693
  20
18.9127
  42
0
  0
VERTEX
  8
Edge_Top
  10
45.0258
  20
18.9777
  42
0
  0
VERTEX
  8
Edge_Top
  10
45.1413
  20
19.0481
  42
0
  0
VERTEX
  8
Edge_Top
  10
45.2453
  20
19.1345
  42
0
  0
VERTEX
  8
Edge_Top
  10
45.3356
  20
19.2351
  42
0
  0
VERTEX
  8
Edge_Top
  10
45.4103
  20
19.3478
  42
0
  0
VERTEX
  8
Edge_Top
  10
45.4678
  20
19.4702
  42
0
  0
VERTEX
  8
Edge_Top
  10
45.5069
  20
19.5996
  42
0
  0
VERTEX
  8
Edge_Top
  10
45.5267
  20
19.7334
  42
0
  0
VERTEX
  8
Edge_Top
  10
45.5269
  20
19.8686
  42
0
  0
VERTEX
  8
Edge_Top
  10
45.5073
  20
20.0024
  42
0
  0
VERTEX
  8
Edge_Top
  10
45.4685
  20
20.1319
  42
0
  0
VERTEX
  8
Edge_Top
  10
45.4113
  20
20.2544
  42
0
  0
VERTEX
  8
Edge_Top
  10
45.3368
  20
20.3673
  42
0
  0
VERTEX
  8
Edge_Top
  10
45.2467
  20
20.4681
  42
0
  0
VERTEX
  8
Edge_Top
  10
45.1429
  20
20.5547
  42
0
  0
VERTEX
  8
Edge_Top
  10
45.0276
  20
20.6253
  42
0
  0
VERTEX
  8
Edge_Top
  10
44.9033
  20
20.6784
  42
0
  0
VERTEX
  8
Edge_Top
  10
44.7725
  20
20.7128
  42
0
  0
VERTEX
  8
Edge_Top
  10
44.6381
  20
20.7278
  42
0
  0
VERTEX
  8
Edge_Top
  10
44.503
  20
20.7231
  42
0
  0
VERTEX
  8
Edge_Top
  10
44.37
  20
20.6988
  42
0
  0
VERTEX
  8
Edge_Top
  10
44.2419
  20
20.6553
  42
0
  0
VERTEX
  8
Edge_Top
  10
44.1216
  20
20.5937
  42
0
  0
VERTEX
  8
Edge_Top
  10
44.0115
  20
20.5153
  42
0
  0
VERTEX
  8
Edge_Top
  10
43.9139
  20
20.4216
  42
0
  0
VERTEX
  8
Edge_Top
  10
43.8311
  20
20.3148
  42
0
  0
VERTEX
  8
Edge_Top
  10
43.7647
  20
20.197
  42
0
  0
VERTEX
  8
Edge_Top
  10
43.7161
  20
20.0708
  42
0
  0
VERTEX
  8
Edge_Top
  10
43.6864
  20
19.9389
  42
0
  0
VERTEX
  8
Edge_Top
  10
43.6763
  20
19.802
  42
0
  0
VERTEX
  8
Edge_Top
  10
43.6861
  20
19.6671
  42
0
  0
VERTEX
  8
Edge_Top
  10
43.7155
  20
19.5352
  42
0
  0
VERTEX
  8
Edge_Top
  10
43.7638
  20
19.4089
  42
0
  0
VERTEX
  8
Edge_Top
  10
43.83
  20
19.2909
  42
0
  0
VERTEX
  8
Edge_Top
  10
43.9126
  20
19.1839
  42
0
  0
VERTEX
  8
Edge_Top
  10
44.0099
  20
19.09
  42
0
  0
VERTEX
  8
Edge_Top
  10
44.1198
  20
19.0113
  42
0
  0
VERTEX
  8
Edge_Top
  10
44.2401
  20
18.9494
  42
0
  0
VERTEX
  8
Edge_Top
  10
44.34
  20
18.9153
  42
0
  0
VERTEX
  8
Edge_Top
  10
44.3363
  20
18.178
  42
0
  0
VERTEX
  8
Edge_Top
  10
44.3363
  20
16.8966
  42
0
  0
VERTEX
  8
Edge_Top
  10
43.4006
  20
15.9601
  42
0
  0
VERTEX
  8
Edge_Top
  10
43.2358
  20
16.0202
  42
0
  0
VERTEX
  8
Edge_Top
  10
43.1029
  20
16.0447
  42
0
  0
VERTEX
  8
Edge_Top
  10
42.9677
  20
16.0479
  42
0
  0
VERTEX
  8
Edge_Top
  10
42.8338
  20
16.0297
  42
0
  0
VERTEX
  8
Edge_Top
  10
42.7044
  20
15.9905
  42
0
  0
VERTEX
  8
Edge_Top
  10
42.5828
  20
15.9314
  42
0
  0
VERTEX
  8
Edge_Top
  10
42.4722
  20
15.8537
  42
0
  0
VERTEX
  8
Edge_Top
  10
42.3752
  20
15.7595
  42
0
  0
VERTEX
  8
Edge_Top
  10
42.2944
  20
15.6512
  42
0
  0
VERTEX
  8
Edge_Top
  10
42.2317
  20
15.5314
  42
0
  0
VERTEX
  8
Edge_Top
  10
42.1887
  20
15.4032
  42
0
  0
VERTEX
  8
Edge_Top
  10
42.1636
  20
15.1978
  42
0
  0
VERTEX
  8
Edge_Top
  10
42.1743
  20
15.063
  42
0
  0
SEQEND
  0
POLYLINE
  8
Edge_Top
  6
CONTINUOUS
  66
1
  70
0
  40
0.203
  41
0.203
  0
VERTEX
  8
Edge_Top
  10
8.8949
  20
35.8528
  42
0
  0
VERTEX
  8
Edge_Top
  10
6.5273
  20
35.8528
  42
0
  0
VERTEX
  8
Edge_Top
  10
6.5273
  20
32.9498
  42
0
  0
VERTEX
  8
Edge_Top
  10
8.8575
  20
32.9498
  42
0
  0
VERTEX
  8
Edge_Top
  10
9.9827
  20
31.8205
  42
0
  0
VERTEX
  8
Edge_Top
  10
10.1303
  20
31.6729
  42
0
  0
VERTEX
  8
Edge_Top
  10
10.2499
  20
31.6049
  42
0
  0
VERTEX
  8
Edge_Top
  10
10.3188
  20
31.5948
  42
0
  0
VERTEX
  8
Edge_Top
  10
17.9388
  20
31.5948
  42
0
  0
VERTEX
  8
Edge_Top
  10
18.0714
  20
31.6314
  42
0
  0
VERTEX
  8
Edge_Top
  10
18.1272
  20
31.6729
  42
0
  0
VERTEX
  8
Edge_Top
  10
20.5944
  20
34.14
  42
0
  0
VERTEX
  8
Edge_Top
  10
21.446
  20
34.142
  42
0
  0
VERTEX
  8
Edge_Top
  10
21.4415
  20
33.83
  42
0
  0
VERTEX
  8
Edge_Top
  10
21.4415
  20
32.957
  42
0
  0
VERTEX
  8
Edge_Top
  10
22.4269
  20
32.957
  42
0
  0
VERTEX
  8
Edge_Top
  10
22.4265
  20
31.392
  42
0
  0
VERTEX
  8
Edge_Top
  10
22.463
  20
31.2593
  42
0
  0
VERTEX
  8
Edge_Top
  10
22.5045
  20
31.2035
  42
0
  0
VERTEX
  8
Edge_Top
  10
23.4571
  20
30.2509
  42
0
  0
VERTEX
  8
Edge_Top
  10
23.5767
  20
30.183
  42
0
  0
VERTEX
  8
Edge_Top
  10
23.6456
  20
30.1729
  42
0
  0
VERTEX
  8
Edge_Top
  10
30.1458
  20
30.1729
  42
0
  0
VERTEX
  8
Edge_Top
  10
28.3866
  20
28.4127
  42
0
  0
VERTEX
  8
Edge_Top
  10
28.3186
  20
28.2931
  42
0
  0
VERTEX
  8
Edge_Top
  10
28.3085
  20
28.2243
  42
0
  0
VERTEX
  8
Edge_Top
  10
28.3085
  20
19.0005
  42
0
  0
VERTEX
  8
Edge_Top
  10
28.345
  20
18.8678
  42
0
  0
VERTEX
  8
Edge_Top
  10
28.3866
  20
18.812
  42
0
  0
VERTEX
  8
Edge_Top
  10
30.1248
  20
17.0738
  42
0
  0
VERTEX
  8
Edge_Top
  10
30.2444
  20
17.0059
  42
0
  0
VERTEX
  8
Edge_Top
  10
30.3132
  20
16.9958
  42
0
  0
VERTEX
  8
Edge_Top
  10
31.2478
  20
16.9958
  42
0
  0
VERTEX
  8
Edge_Top
  10
31.3037
  20
16.8715
  42
0
  0
VERTEX
  8
Edge_Top
  10
31.3751
  20
16.7567
  42
0
  0
VERTEX
  8
Edge_Top
  10
31.4637
  20
16.6546
  42
0
  0
VERTEX
  8
Edge_Top
  10
31.5674
  20
16.5679
  42
0
  0
VERTEX
  8
Edge_Top
  10
31.6835
  20
16.4986
  42
0
  0
VERTEX
  8
Edge_Top
  10
31.8091
  20
16.4486
  42
0
  0
VERTEX
  8
Edge_Top
  10
31.9411
  20
16.4191
  42
0
  0
VERTEX
  8
Edge_Top
  10
32.076
  20
16.4109
  42
0
  0
VERTEX
  8
Edge_Top
  10
32.2105
  20
16.4241
  42
0
  0
VERTEX
  8
Edge_Top
  10
32.3413
  20
16.4585
  42
0
  0
VERTEX
  8
Edge_Top
  10
32.465
  20
16.5131
  42
0
  0
VERTEX
  8
Edge_Top
  10
32.5784
  20
16.5866
  42
0
  0
VERTEX
  8
Edge_Top
  10
32.6788
  20
16.6772
  42
0
  0
VERTEX
  8
Edge_Top
  10
32.7636
  20
16.7824
  42
0
  0
VERTEX
  8
Edge_Top
  10
32.8307
  20
16.8998
  42
0
  0
VERTEX
  8
Edge_Top
  10
32.8784
  20
17.0263
  42
0
  0
VERTEX
  8
Edge_Top
  10
32.9054
  20
17.1588
  42
0
  0
VERTEX
  8
Edge_Top
  10
32.9111
  20
17.2939
  42
0
  0
VERTEX
  8
Edge_Top
  10
32.8954
  20
17.4281
  42
0
  0
VERTEX
  8
Edge_Top
  10
32.8586
  20
17.5582
  42
0
  0
VERTEX
  8
Edge_Top
  10
32.8017
  20
17.6809
  42
0
  0
VERTEX
  8
Edge_Top
  10
32.7261
  20
17.7929
  42
0
  0
VERTEX
  8
Edge_Top
  10
32.6337
  20
17.8916
  42
0
  0
VERTEX
  8
Edge_Top
  10
32.5269
  20
17.9745
  42
0
  0
VERTEX
  8
Edge_Top
  10
32.4083
  20
18.0394
  42
0
  0
VERTEX
  8
Edge_Top
  10
32.2809
  20
18.0847
  42
0
  0
VERTEX
  8
Edge_Top
  10
32.148
  20
18.1092
  42
0
  0
VERTEX
  8
Edge_Top
  10
32.0128
  20
18.1124
  42
0
  0
VERTEX
  8
Edge_Top
  10
31.8789
  20
18.0942
  42
0
  0
VERTEX
  8
Edge_Top
  10
31.7495
  20
18.055
  42
0
  0
VERTEX
  8
Edge_Top
  10
31.6279
  20
17.9959
  42
0
  0
VERTEX
  8
Edge_Top
  10
31.5173
  20
17.9182
  42
0
  0
VERTEX
  8
Edge_Top
  10
31.4203
  20
17.824
  42
0
  0
VERTEX
  8
Edge_Top
  10
31.3395
  20
17.7157
  42
0
  0
VERTEX
  8
Edge_Top
  10
31.2768
  20
17.5959
  42
0
  0
VERTEX
  8
Edge_Top
  10
31.2482
  20
17.5288
  42
0
  0
VERTEX
  8
Edge_Top
  10
30.4247
  20
17.5288
  42
0
  0
VERTEX
  8
Edge_Top
  10
28.8419
  20
19.1104
  42
0
  0
VERTEX
  8
Edge_Top
  10
28.8415
  20
28.1143
  42
0
  0
VERTEX
  8
Edge_Top
  10
30.9016
  20
30.174
  42
0
  0
VERTEX
  8
Edge_Top
  10
34.6598
  20
30.1729
  42
0
  0
VERTEX
  8
Edge_Top
  10
34.6581
  20
29.3853
  42
0
  0
VERTEX
  8
Edge_Top
  10
36.1311
  20
29.3853
  42
0
  0
VERTEX
  8
Edge_Top
  10
36.1311
  20
30.8583
  42
0
  0
VERTEX
  8
Edge_Top
  10
34.6581
  20
30.8583
  42
0
  0
VERTEX
  8
Edge_Top
  10
34.6581
  20
30.7019
  42
0
  0
VERTEX
  8
Edge_Top
  10
33.7237
  20
30.7059
  42
0
  0
VERTEX
  8
Edge_Top
  10
23.757
  20
30.7059
  42
0
  0
VERTEX
  8
Edge_Top
  10
22.9585
  20
31.5033
  42
0
  0
VERTEX
  8
Edge_Top
  10
22.9595
  20
32.961
  42
0
  0
VERTEX
  8
Edge_Top
  10
23.7421
  20
32.957
  42
0
  0
VERTEX
  8
Edge_Top
  10
23.9445
  20
32.957
  42
0
  0
VERTEX
  8
Edge_Top
  10
23.9445
  20
35.86
  42
0
  0
VERTEX
  8
Edge_Top
  10
21.4415
  20
35.86
  42
0
  0
VERTEX
  8
Edge_Top
  10
21.4415
  20
34.6716
  42
0
  0
VERTEX
  8
Edge_Top
  10
20.486
  20
34.675
  42
0
  0
VERTEX
  8
Edge_Top
  10
20.3533
  20
34.6385
  42
0
  0
VERTEX
  8
Edge_Top
  10
20.2975
  20
34.597
  42
0
  0
VERTEX
  8
Edge_Top
  10
17.8304
  20
32.1298
  42
0
  0
VERTEX
  8
Edge_Top
  10
14.9614
  20
32.1278
  42
0
  0
VERTEX
  8
Edge_Top
  10
10.432
  20
32.1278
  42
0
  0
VERTEX
  8
Edge_Top
  10
9.0329
  20
33.5241
  42
0
  0
VERTEX
  8
Edge_Top
  10
9.0303
  20
35.6565
  42
0
  0
VERTEX
  8
Edge_Top
  10
9.0303
  20
35.8528
  42
0
  0
VERTEX
  8
Edge_Top
  10
8.8949
  20
35.8528
  42
0
  0
SEQEND
  0
POLYLINE
  8
Edge_Top
  6
CONTINUOUS
  66
1
  70
0
  40
0.203
  41
0.203
  0
VERTEX
  8
Edge_Top
  10
12.53
  20
34.5901
  42
0
  0
VERTEX
  8
Edge_Top
  10
12.5237
  20
34.7294
  42
0
  0
VERTEX
  8
Edge_Top
  10
12.5026
  20
34.863
  42
0
  0
VERTEX
  8
Edge_Top
  10
12.4672
  20
34.9936
  42
0
  0
VERTEX
  8
Edge_Top
  10
12.4042
  20
35.1458
  42
0
  0
VERTEX
  8
Edge_Top
  10
13.094
  20
35.8397
  42
0
  0
VERTEX
  8
Edge_Top
  10
13.9284
  20
36.674
  42
0
  0
VERTEX
  8
Edge_Top
  10
25.4447
  20
36.6748
  42
0
  0
VERTEX
  8
Edge_Top
  10
25.9295
  20
36.1937
  42
0
  0
VERTEX
  8
Edge_Top
  10
25.9265
  20
35.8292
  42
0
  0
VERTEX
  8
Edge_Top
  10
25.7404
  20
35.7753
  42
0
  0
VERTEX
  8
Edge_Top
  10
25.6171
  20
35.7197
  42
0
  0
VERTEX
  8
Edge_Top
  10
25.5005
  20
35.651
  42
0
  0
VERTEX
  8
Edge_Top
  10
25.392
  20
35.5702
  42
0
  0
VERTEX
  8
Edge_Top
  10
25.2929
  20
35.4781
  42
0
  0
VERTEX
  8
Edge_Top
  10
25.2043
  20
35.3759
  42
0
  0
VERTEX
  8
Edge_Top
  10
25.1273
  20
35.2647
  42
0
  0
VERTEX
  8
Edge_Top
  10
25.0627
  20
35.1459
  42
0
  0
VERTEX
  8
Edge_Top
  10
25.0113
  20
35.0208
  42
0
  0
VERTEX
  8
Edge_Top
  10
24.9737
  20
34.8908
  42
0
  0
VERTEX
  8
Edge_Top
  10
24.9504
  20
34.7576
  42
0
  0
VERTEX
  8
Edge_Top
  10
24.9415
  20
34.4732
  42
0
  0
VERTEX
  8
Edge_Top
  10
24.9457
  20
34.2085
  42
0
  0
VERTEX
  8
Edge_Top
  10
24.9488
  20
34.0735
  42
0
  0
VERTEX
  8
Edge_Top
  10
24.9706
  20
33.94
  42
0
  0
VERTEX
  8
Edge_Top
  10
25.0067
  20
33.8096
  42
0
  0
VERTEX
  8
Edge_Top
  10
25.0567
  20
33.6839
  42
0
  0
VERTEX
  8
Edge_Top
  10
25.12
  20
33.5644
  42
0
  0
VERTEX
  8
Edge_Top
  10
25.1958
  20
33.4523
  42
0
  0
VERTEX
  8
Edge_Top
  10
25.2832
  20
33.3491
  42
0
  0
VERTEX
  8
Edge_Top
  10
25.3813
  20
33.2559
  42
0
  0
VERTEX
  8
Edge_Top
  10
25.4888
  20
33.1739
  42
0
  0
VERTEX
  8
Edge_Top
  10
25.6046
  20
33.104
  42
0
  0
VERTEX
  8
Edge_Top
  10
25.7273
  20
33.0469
  42
0
  0
VERTEX
  8
Edge_Top
  10
25.8554
  20
33.0034
  42
0
  0
VERTEX
  8
Edge_Top
  10
25.9874
  20
32.974
  42
0
  0
VERTEX
  8
Edge_Top
  10
26.1218
  20
32.9591
  42
0
  0
VERTEX
  8
Edge_Top
  10
26.2571
  20
32.9587
  42
0
  0
VERTEX
  8
Edge_Top
  10
26.3916
  20
32.9729
  42
0
  0
VERTEX
  8
Edge_Top
  10
26.5238
  20
33.0016
  42
0
  0
VERTEX
  8
Edge_Top
  10
26.6521
  20
33.0443
  42
0
  0
VERTEX
  8
Edge_Top
  10
26.7751
  20
33.1007
  42
0
  0
VERTEX
  8
Edge_Top
  10
26.8913
  20
33.17
  42
0
  0
VERTEX
  8
Edge_Top
  10
26.9993
  20
33.2514
  42
0
  0
VERTEX
  8
Edge_Top
  10
27.0979
  20
33.344
  42
0
  0
VERTEX
  8
Edge_Top
  10
27.1859
  20
33.4467
  42
0
  0
VERTEX
  8
Edge_Top
  10
27.2623
  20
33.5583
  42
0
  0
VERTEX
  8
Edge_Top
  10
27.3262
  20
33.6775
  42
0
  0
VERTEX
  8
Edge_Top
  10
27.3769
  20
33.803
  42
0
  0
VERTEX
  8
Edge_Top
  10
27.4138
  20
33.9331
  42
0
  0
VERTEX
  8
Edge_Top
  10
27.4407
  20
34.1382
  42
0
  0
VERTEX
  8
Edge_Top
  10
28.3583
  20
34.142
  42
0
  0
VERTEX
  8
Edge_Top
  10
38.7747
  20
34.142
  42
0
  0
VERTEX
  8
Edge_Top
  10
40.2089
  20
32.7099
  42
0
  0
VERTEX
  8
Edge_Top
  10
40.2042
  20
30.4185
  42
0
  0
VERTEX
  8
Edge_Top
  10
38.6098
  20
30.4185
  42
0
  0
VERTEX
  8
Edge_Top
  10
38.5687
  20
30.4963
  42
0
  0
VERTEX
  8
Edge_Top
  10
38.4896
  20
30.6059
  42
0
  0
VERTEX
  8
Edge_Top
  10
38.3918
  20
30.6992
  42
0
  0
VERTEX
  8
Edge_Top
  10
38.2786
  20
30.773
  42
0
  0
VERTEX
  8
Edge_Top
  10
38.1539
  20
30.8249
  42
0
  0
VERTEX
  8
Edge_Top
  10
38.0217
  20
30.8532
  42
0
  0
VERTEX
  8
Edge_Top
  10
37.8866
  20
30.8568
  42
0
  0
VERTEX
  8
Edge_Top
  10
37.7531
  20
30.8356
  42
0
  0
VERTEX
  8
Edge_Top
  10
37.6258
  20
30.7905
  42
0
  0
VERTEX
  8
Edge_Top
  10
37.5088
  20
30.7228
  42
0
  0
VERTEX
  8
Edge_Top
  10
37.4061
  20
30.6349
  42
0
  0
VERTEX
  8
Edge_Top
  10
37.3213
  20
30.5297
  42
0
  0
VERTEX
  8
Edge_Top
  10
37.2571
  20
30.4108
  42
0
  0
VERTEX
  8
Edge_Top
  10
37.2157
  20
30.2821
  42
0
  0
VERTEX
  8
Edge_Top
  10
37.1981
  20
30.1218
  42
0
  0
VERTEX
  8
Edge_Top
  10
37.2105
  20
29.9873
  42
0
  0
VERTEX
  8
Edge_Top
  10
37.2472
  20
29.8572
  42
0
  0
VERTEX
  8
Edge_Top
  10
37.3072
  20
29.7361
  42
0
  0
VERTEX
  8
Edge_Top
  10
37.3882
  20
29.6279
  42
0
  0
VERTEX
  8
Edge_Top
  10
37.4877
  20
29.5364
  42
0
  0
VERTEX
  8
Edge_Top
  10
37.6021
  20
29.4646
  42
0
  0
VERTEX
  8
Edge_Top
  10
37.7278
  20
29.4149
  42
0
  0
VERTEX
  8
Edge_Top
  10
37.8605
  20
29.3891
  42
0
  0
VERTEX
  8
Edge_Top
  10
37.9956
  20
29.3879
  42
0
  0
VERTEX
  8
Edge_Top
  10
38.1287
  20
29.4114
  42
0
  0
VERTEX
  8
Edge_Top
  10
38.2552
  20
29.4588
  42
0
  0
VERTEX
  8
Edge_Top
  10
38.371
  20
29.5286
  42
0
  0
VERTEX
  8
Edge_Top
  10
38.472
  20
29.6183
  42
0
  0
VERTEX
  8
Edge_Top
  10
38.555
  20
29.725
  42
0
  0
VERTEX
  8
Edge_Top
  10
38.6305
  20
29.8895
  42
0
  0
VERTEX
  8
Edge_Top
  10
38.9121
  20
29.8855
  42
0
  0
VERTEX
  8
Edge_Top
  10
43.7155
  20
29.8852
  42
0
  0
VERTEX
  8
Edge_Top
  10
43.7638
  20
29.7589
  42
0
  0
VERTEX
  8
Edge_Top
  10
43.83
  20
29.6409
  42
0
  0
VERTEX
  8
Edge_Top
  10
43.9126
  20
29.5339
  42
0
  0
VERTEX
  8
Edge_Top
  10
44.0099
  20
29.44
  42
0
  0
VERTEX
  8
Edge_Top
  10
44.1198
  20
29.3613
  42
0
  0
VERTEX
  8
Edge_Top
  10
44.2401
  20
29.2994
  42
0
  0
VERTEX
  8
Edge_Top
  10
44.368
  20
29.2557
  42
0
  0
VERTEX
  8
Edge_Top
  10
44.501
  20
29.2311
  42
0
  0
VERTEX
  8
Edge_Top
  10
44.6361
  20
29.2261
  42
0
  0
VERTEX
  8
Edge_Top
  10
44.7705
  20
29.2408
  42
0
  0
VERTEX
  8
Edge_Top
  10
44.9013
  20
29.2749
  42
0
  0
VERTEX
  8
Edge_Top
  10
45.0258
  20
29.3277
  42
0
  0
VERTEX
  8
Edge_Top
  10
45.1413
  20
29.3981
  42
0
  0
VERTEX
  8
Edge_Top
  10
45.2453
  20
29.4845
  42
0
  0
VERTEX
  8
Edge_Top
  10
45.3356
  20
29.5851
  42
0
  0
VERTEX
  8
Edge_Top
  10
45.4103
  20
29.6978
  42
0
  0
VERTEX
  8
Edge_Top
  10
45.4678
  20
29.8202
  42
0
  0
VERTEX
  8
Edge_Top
  10
45.5069
  20
29.9496
  42
0
  0
VERTEX
  8
Edge_Top
  10
45.5267
  20
30.0834
  42
0
  0
VERTEX
  8
Edge_Top
  10
45.5269
  20
30.2186
  42
0
  0
VERTEX
  8
Edge_Top
  10
45.5073
  20
30.3524
  42
0
  0
VERTEX
  8
Edge_Top
  10
45.4685
  20
30.4819
  42
0
  0
VERTEX
  8
Edge_Top
  10
45.4113
  20
30.6044
  42
0
  0
VERTEX
  8
Edge_Top
  10
45.3368
  20
30.7173
  42
0
  0
VERTEX
  8
Edge_Top
  10
45.2467
  20
30.8181
  42
0
  0
VERTEX
  8
Edge_Top
  10
45.1429
  20
30.9047
  42
0
  0
VERTEX
  8
Edge_Top
  10
45.0276
  20
30.9753
  42
0
  0
VERTEX
  8
Edge_Top
  10
44.9033
  20
31.0284
  42
0
  0
VERTEX
  8
Edge_Top
  10
44.7725
  20
31.0628
  42
0
  0
VERTEX
  8
Edge_Top
  10
44.6381
  20
31.0778
  42
0
  0
VERTEX
  8
Edge_Top
  10
44.503
  20
31.0731
  42
0
  0
VERTEX
  8
Edge_Top
  10
44.37
  20
31.0488
  42
0
  0
VERTEX
  8
Edge_Top
  10
44.2419
  20
31.0053
  42
0
  0
VERTEX
  8
Edge_Top
  10
44.1216
  20
30.9437
  42
0
  0
VERTEX
  8
Edge_Top
  10
44.0115
  20
30.8653
  42
0
  0
VERTEX
  8
Edge_Top
  10
43.9139
  20
30.7716
  42
0
  0
VERTEX
  8
Edge_Top
  10
43.8311
  20
30.6648
  42
0
  0
VERTEX
  8
Edge_Top
  10
43.7647
  20
30.547
  42
0
  0
VERTEX
  8
Edge_Top
  10
43.7152
  20
30.4167
  42
0
  0
VERTEX
  8
Edge_Top
  10
40.7415
  20
30.4185
  42
0
  0
VERTEX
  8
Edge_Top
  10
40.7413
  20
32.8209
  42
0
  0
VERTEX
  8
Edge_Top
  10
40.7048
  20
32.9535
  42
0
  0
VERTEX
  8
Edge_Top
  10
40.6633
  20
33.0093
  42
0
  0
VERTEX
  8
Edge_Top
  10
39.0756
  20
34.597
  42
0
  0
VERTEX
  8
Edge_Top
  10
38.956
  20
34.6649
  42
0
  0
VERTEX
  8
Edge_Top
  10
38.8872
  20
34.675
  42
0
  0
VERTEX
  8
Edge_Top
  10
27.4388
  20
34.675
  42
0
  0
VERTEX
  8
Edge_Top
  10
27.4168
  20
34.8702
  42
0
  0
VERTEX
  8
Edge_Top
  10
27.3814
  20
35.0008
  42
0
  0
VERTEX
  8
Edge_Top
  10
27.3321
  20
35.1267
  42
0
  0
VERTEX
  8
Edge_Top
  10
27.2696
  20
35.2467
  42
0
  0
VERTEX
  8
Edge_Top
  10
27.1944
  20
35.3591
  42
0
  0
VERTEX
  8
Edge_Top
  10
27.1075
  20
35.4628
  42
0
  0
VERTEX
  8
Edge_Top
  10
27.01
  20
35.5565
  42
0
  0
VERTEX
  8
Edge_Top
  10
26.9029
  20
35.6392
  42
0
  0
VERTEX
  8
Edge_Top
  10
26.7875
  20
35.7098
  42
0
  0
VERTEX
  8
Edge_Top
  10
26.6652
  20
35.7675
  42
0
  0
VERTEX
  8
Edge_Top
  10
26.4591
  20
35.8296
  42
0
  0
VERTEX
  8
Edge_Top
  10
26.4595
  20
36.3071
  42
0
  0
VERTEX
  8
Edge_Top
  10
26.4229
  20
36.4398
  42
0
  0
VERTEX
  8
Edge_Top
  10
26.3814
  20
36.4956
  42
0
  0
VERTEX
  8
Edge_Top
  10
25.7472
  20
37.1298
  42
0
  0
VERTEX
  8
Edge_Top
  10
25.6276
  20
37.1977
  42
0
  0
VERTEX
  8
Edge_Top
  10
25.5588
  20
37.2078
  42
0
  0
VERTEX
  8
Edge_Top
  10
13.8188
  20
37.2078
  42
0
  0
VERTEX
  8
Edge_Top
  10
13.6861
  20
37.1713
  42
0
  0
VERTEX
  8
Edge_Top
  10
13.6303
  20
37.1298
  42
0
  0
VERTEX
  8
Edge_Top
  10
12.0723
  20
35.5717
  42
0
  0
VERTEX
  8
Edge_Top
  10
11.8733
  20
35.7026
  42
0
  0
VERTEX
  8
Edge_Top
  10
11.751
  20
35.7603
  42
0
  0
VERTEX
  8
Edge_Top
  10
11.6232
  20
35.8045
  42
0
  0
VERTEX
  8
Edge_Top
  10
11.4913
  20
35.8347
  42
0
  0
VERTEX
  8
Edge_Top
  10
11.3569
  20
35.8504
  42
0
  0
VERTEX
  8
Edge_Top
  10
11.2217
  20
35.8515
  42
0
  0
VERTEX
  8
Edge_Top
  10
11.0871
  20
35.8381
  42
0
  0
VERTEX
  8
Edge_Top
  10
10.9547
  20
35.8102
  42
0
  0
VERTEX
  8
Edge_Top
  10
10.8262
  20
35.7681
  42
0
  0
VERTEX
  8
Edge_Top
  10
10.7029
  20
35.7125
  42
0
  0
VERTEX
  8
Edge_Top
  10
10.5863
  20
35.6438
  42
0
  0
VERTEX
  8
Edge_Top
  10
10.4778
  20
35.563
  42
0
  0
VERTEX
  8
Edge_Top
  10
10.3787
  20
35.4709
  42
0
  0
VERTEX
  8
Edge_Top
  10
10.2901
  20
35.3687
  42
0
  0
VERTEX
  8
Edge_Top
  10
10.2131
  20
35.2575
  42
0
  0
VERTEX
  8
Edge_Top
  10
10.1485
  20
35.1387
  42
0
  0
VERTEX
  8
Edge_Top
  10
10.0971
  20
35.0136
  42
0
  0
VERTEX
  8
Edge_Top
  10
10.0595
  20
34.8836
  42
0
  0
VERTEX
  8
Edge_Top
  10
10.0362
  20
34.7504
  42
0
  0
VERTEX
  8
Edge_Top
  10
10.0273
  20
34.466
  42
0
  0
VERTEX
  8
Edge_Top
  10
10.0315
  20
34.2013
  42
0
  0
VERTEX
  8
Edge_Top
  10
10.0346
  20
34.0663
  42
0
  0
VERTEX
  8
Edge_Top
  10
10.0564
  20
33.9328
  42
0
  0
VERTEX
  8
Edge_Top
  10
10.0925
  20
33.8024
  42
0
  0
VERTEX
  8
Edge_Top
  10
10.1425
  20
33.6767
  42
0
  0
VERTEX
  8
Edge_Top
  10
10.2058
  20
33.5572
  42
0
  0
VERTEX
  8
Edge_Top
  10
10.2816
  20
33.4451
  42
0
  0
VERTEX
  8
Edge_Top
  10
10.369
  20
33.3419
  42
0
  0
VERTEX
  8
Edge_Top
  10
10.4671
  20
33.2487
  42
0
  0
VERTEX
  8
Edge_Top
  10
10.5746
  20
33.1667
  42
0
  0
VERTEX
  8
Edge_Top
  10
10.6904
  20
33.0968
  42
0
  0
VERTEX
  8
Edge_Top
  10
10.8131
  20
33.0397
  42
0
  0
VERTEX
  8
Edge_Top
  10
10.9412
  20
32.9962
  42
0
  0
VERTEX
  8
Edge_Top
  10
11.0732
  20
32.9668
  42
0
  0
VERTEX
  8
Edge_Top
  10
11.2076
  20
32.9519
  42
0
  0
VERTEX
  8
Edge_Top
  10
11.3429
  20
32.9515
  42
0
  0
VERTEX
  8
Edge_Top
  10
11.4774
  20
32.9657
  42
0
  0
VERTEX
  8
Edge_Top
  10
11.6096
  20
32.9944
  42
0
  0
VERTEX
  8
Edge_Top
  10
11.7379
  20
33.0371
  42
0
  0
VERTEX
  8
Edge_Top
  10
11.8609
  20
33.0935
  42
0
  0
VERTEX
  8
Edge_Top
  10
11.9771
  20
33.1628
  42
0
  0
VERTEX
  8
Edge_Top
  10
12.0851
  20
33.2442
  42
0
  0
VERTEX
  8
Edge_Top
  10
12.1837
  20
33.3368
  42
0
  0
VERTEX
  8
Edge_Top
  10
12.2717
  20
33.4395
  42
0
  0
VERTEX
  8
Edge_Top
  10
12.3481
  20
33.5511
  42
0
  0
VERTEX
  8
Edge_Top
  10
12.412
  20
33.6703
  42
0
  0
VERTEX
  8
Edge_Top
  10
12.4627
  20
33.7958
  42
0
  0
VERTEX
  8
Edge_Top
  10
12.4996
  20
33.9259
  42
0
  0
VERTEX
  8
Edge_Top
  10
12.5222
  20
34.0593
  42
0
  0
VERTEX
  8
Edge_Top
  10
12.5303
  20
34.3367
  42
0
  0
VERTEX
  8
Edge_Top
  10
12.526
  20
34.6013
  42
0
  0
VERTEX
  8
Edge_Top
  10
12.53
  20
34.5901
  42
0
  0
SEQEND
  0
POLYLINE
  8
Edge_Top
  6
CONTINUOUS
  66
1
  70
0
  40
0.203
  41
0.203
  0
VERTEX
  8
Edge_Top
  10
16.0607
  20
25.0652
  42
0
  0
VERTEX
  8
Edge_Top
  10
16.0901
  20
24.9332
  42
0
  0
VERTEX
  8
Edge_Top
  10
16.1384
  20
24.8069
  42
0
  0
VERTEX
  8
Edge_Top
  10
16.2046
  20
24.689
  42
0
  0
VERTEX
  8
Edge_Top
  10
16.2872
  20
24.582
  42
0
  0
VERTEX
  8
Edge_Top
  10
16.3845
  20
24.4881
  42
0
  0
VERTEX
  8
Edge_Top
  10
16.4944
  20
24.4094
  42
0
  0
VERTEX
  8
Edge_Top
  10
16.6147
  20
24.3475
  42
0
  0
VERTEX
  8
Edge_Top
  10
16.7426
  20
24.3038
  42
0
  0
VERTEX
  8
Edge_Top
  10
16.8756
  20
24.2792
  42
0
  0
VERTEX
  8
Edge_Top
  10
17.0107
  20
24.2742
  42
0
  0
VERTEX
  8
Edge_Top
  10
17.1451
  20
24.2889
  42
0
  0
VERTEX
  8
Edge_Top
  10
17.2759
  20
24.323
  42
0
  0
VERTEX
  8
Edge_Top
  10
17.4004
  20
24.3758
  42
0
  0
VERTEX
  8
Edge_Top
  10
17.5159
  20
24.4461
  42
0
  0
VERTEX
  8
Edge_Top
  10
17.6199
  20
24.5325
  42
0
  0
VERTEX
  8
Edge_Top
  10
17.7102
  20
24.6332
  42
0
  0
VERTEX
  8
Edge_Top
  10
17.7849
  20
24.7459
  42
0
  0
VERTEX
  8
Edge_Top
  10
17.8424
  20
24.8683
  42
0
  0
VERTEX
  8
Edge_Top
  10
17.8815
  20
24.9977
  42
0
  0
VERTEX
  8
Edge_Top
  10
17.8957
  20
25.0938
  42
0
  0
VERTEX
  8
Edge_Top
  10
20.8367
  20
25.0923
  42
0
  0
VERTEX
  8
Edge_Top
  10
23.5901
  20
22.3384
  42
0
  0
VERTEX
  8
Edge_Top
  10
23.5994
  20
22.2075
  42
0
  0
VERTEX
  8
Edge_Top
  10
23.6314
  20
22.0761
  42
0
  0
VERTEX
  8
Edge_Top
  10
23.6837
  20
21.9515
  42
0
  0
VERTEX
  8
Edge_Top
  10
23.7551
  20
21.8367
  42
0
  0
VERTEX
  8
Edge_Top
  10
23.8437
  20
21.7346
  42
0
  0
VERTEX
  8
Edge_Top
  10
23.9474
  20
21.6479
  42
0
  0
VERTEX
  8
Edge_Top
  10
24.0635
  20
21.5786
  42
0
  0
VERTEX
  8
Edge_Top
  10
24.1891
  20
21.5286
  42
0
  0
VERTEX
  8
Edge_Top
  10
24.3211
  20
21.4991
  42
0
  0
VERTEX
  8
Edge_Top
  10
24.456
  20
21.4909
  42
0
  0
VERTEX
  8
Edge_Top
  10
24.5905
  20
21.5041
  42
0
  0
VERTEX
  8
Edge_Top
  10
24.7213
  20
21.5385
  42
0
  0
VERTEX
  8
Edge_Top
  10
24.8627
  20
21.6046
  42
0
  0
VERTEX
  8
Edge_Top
  10
25.0518
  20
21.5995
  42
0
  0
VERTEX
  8
Edge_Top
  10
26.3925
  20
21.5995
  42
0
  0
VERTEX
  8
Edge_Top
  10
27.0296
  20
20.9628
  42
0
  0
VERTEX
  8
Edge_Top
  10
27.0307
  20
12.4987
  42
0
  0
VERTEX
  8
Edge_Top
  10
27.0672
  20
12.3661
  42
0
  0
VERTEX
  8
Edge_Top
  10
27.1088
  20
12.3103
  42
0
  0
VERTEX
  8
Edge_Top
  10
28.0614
  20
11.3577
  42
0
  0
VERTEX
  8
Edge_Top
  10
28.181
  20
11.2897
  42
0
  0
VERTEX
  8
Edge_Top
  10
28.2498
  20
11.2796
  42
0
  0
VERTEX
  8
Edge_Top
  10
30.9488
  20
11.2796
  42
0
  0
VERTEX
  8
Edge_Top
  10
31.0815
  20
11.3162
  42
0
  0
VERTEX
  8
Edge_Top
  10
31.1373
  20
11.3577
  42
0
  0
VERTEX
  8
Edge_Top
  10
32.2486
  20
12.4691
  42
0
  0
VERTEX
  8
Edge_Top
  10
32.3166
  20
12.5887
  42
0
  0
VERTEX
  8
Edge_Top
  10
32.3267
  20
12.6575
  42
0
  0
VERTEX
  8
Edge_Top
  10
32.3267
  20
13.9136
  42
0
  0
VERTEX
  8
Edge_Top
  10
32.465
  20
13.9731
  42
0
  0
VERTEX
  8
Edge_Top
  10
32.5784
  20
14.0466
  42
0
  0
VERTEX
  8
Edge_Top
  10
32.6788
  20
14.1372
  42
0
  0
VERTEX
  8
Edge_Top
  10
32.7636
  20
14.2424
  42
0
  0
VERTEX
  8
Edge_Top
  10
32.8307
  20
14.3598
  42
0
  0
VERTEX
  8
Edge_Top
  10
32.8784
  20
14.4863
  42
0
  0
VERTEX
  8
Edge_Top
  10
32.9054
  20
14.6188
  42
0
  0
VERTEX
  8
Edge_Top
  10
32.9111
  20
14.7539
  42
0
  0
VERTEX
  8
Edge_Top
  10
32.8954
  20
14.8881
  42
0
  0
VERTEX
  8
Edge_Top
  10
32.8586
  20
15.0182
  42
0
  0
VERTEX
  8
Edge_Top
  10
32.8017
  20
15.1409
  42
0
  0
VERTEX
  8
Edge_Top
  10
32.7261
  20
15.2529
  42
0
  0
VERTEX
  8
Edge_Top
  10
32.6337
  20
15.3516
  42
0
  0
VERTEX
  8
Edge_Top
  10
32.5269
  20
15.4345
  42
0
  0
VERTEX
  8
Edge_Top
  10
32.4083
  20
15.4994
  42
0
  0
VERTEX
  8
Edge_Top
  10
32.2809
  20
15.5447
  42
0
  0
VERTEX
  8
Edge_Top
  10
32.148
  20
15.5692
  42
0
  0
VERTEX
  8
Edge_Top
  10
32.0128
  20
15.5724
  42
0
  0
VERTEX
  8
Edge_Top
  10
31.8789
  20
15.5542
  42
0
  0
VERTEX
  8
Edge_Top
  10
31.7495
  20
15.515
  42
0
  0
VERTEX
  8
Edge_Top
  10
31.6279
  20
15.4559
  42
0
  0
VERTEX
  8
Edge_Top
  10
31.5173
  20
15.3782
  42
0
  0
VERTEX
  8
Edge_Top
  10
31.4203
  20
15.284
  42
0
  0
VERTEX
  8
Edge_Top
  10
31.3395
  20
15.1757
  42
0
  0
VERTEX
  8
Edge_Top
  10
31.2768
  20
15.0559
  42
0
  0
VERTEX
  8
Edge_Top
  10
31.2338
  20
14.9277
  42
0
  0
VERTEX
  8
Edge_Top
  10
31.2087
  20
14.7223
  42
0
  0
VERTEX
  8
Edge_Top
  10
31.2194
  20
14.5875
  42
0
  0
VERTEX
  8
Edge_Top
  10
31.2514
  20
14.4561
  42
0
  0
VERTEX
  8
Edge_Top
  10
31.3037
  20
14.3315
  42
0
  0
VERTEX
  8
Edge_Top
  10
31.3751
  20
14.2167
  42
0
  0
VERTEX
  8
Edge_Top
  10
31.4637
  20
14.1146
  42
0
  0
VERTEX
  8
Edge_Top
  10
31.5674
  20
14.0279
  42
0
  0
VERTEX
  8
Edge_Top
  10
31.6835
  20
13.9586
  42
0
  0
VERTEX
  8
Edge_Top
  10
31.7937
  20
13.9103
  42
0
  0
VERTEX
  8
Edge_Top
  10
31.7937
  20
12.7642
  42
0
  0
VERTEX
  8
Edge_Top
  10
31.0105
  20
11.9847
  42
0
  0
VERTEX
  8
Edge_Top
  10
30.84
  20
11.8142
  42
0
  0
VERTEX
  8
Edge_Top
  10
28.3575
  20
11.8126
  42
0
  0
VERTEX
  8
Edge_Top
  10
27.5627
  20
12.6101
  42
0
  0
VERTEX
  8
Edge_Top
  10
27.5637
  20
21.0721
  42
0
  0
VERTEX
  8
Edge_Top
  10
27.5272
  20
21.2048
  42
0
  0
VERTEX
  8
Edge_Top
  10
27.4856
  20
21.2606
  42
0
  0
VERTEX
  8
Edge_Top
  10
26.6918
  20
22.0544
  42
0
  0
VERTEX
  8
Edge_Top
  10
26.5722
  20
22.1224
  42
0
  0
VERTEX
  8
Edge_Top
  10
26.5034
  20
22.1325
  42
0
  0
VERTEX
  8
Edge_Top
  10
25.2642
  20
22.1325
  42
0
  0
VERTEX
  8
Edge_Top
  10
25.2854
  20
22.2388
  42
0
  0
VERTEX
  8
Edge_Top
  10
25.2911
  20
22.3739
  42
0
  0
VERTEX
  8
Edge_Top
  10
25.2754
  20
22.5081
  42
0
  0
VERTEX
  8
Edge_Top
  10
25.2386
  20
22.6382
  42
0
  0
VERTEX
  8
Edge_Top
  10
25.1817
  20
22.7609
  42
0
  0
VERTEX
  8
Edge_Top
  10
25.1061
  20
22.8729
  42
0
  0
VERTEX
  8
Edge_Top
  10
25.0137
  20
22.9716
  42
0
  0
VERTEX
  8
Edge_Top
  10
24.9069
  20
23.0545
  42
0
  0
VERTEX
  8
Edge_Top
  10
24.7883
  20
23.1194
  42
0
  0
VERTEX
  8
Edge_Top
  10
24.6609
  20
23.1647
  42
0
  0
VERTEX
  8
Edge_Top
  10
24.528
  20
23.1892
  42
0
  0
VERTEX
  8
Edge_Top
  10
24.3928
  20
23.1924
  42
0
  0
VERTEX
  8
Edge_Top
  10
24.2589
  20
23.1742
  42
0
  0
VERTEX
  8
Edge_Top
  10
24.1295
  20
23.135
  42
0
  0
VERTEX
  8
Edge_Top
  10
24.0079
  20
23.0759
  42
0
  0
VERTEX
  8
Edge_Top
  10
23.8973
  20
22.9982
  42
0
  0
VERTEX
  8
Edge_Top
  10
23.7927
  20
22.8939
  42
0
  0
VERTEX
  8
Edge_Top
  10
23.1946
  20
23.4877
  42
0
  0
VERTEX
  8
Edge_Top
  10
21.2119
  20
25.4703
  42
0
  0
VERTEX
  8
Edge_Top
  10
21.213
  20
26.9486
  42
0
  0
VERTEX
  8
Edge_Top
  10
21.1765
  20
27.0812
  42
0
  0
VERTEX
  8
Edge_Top
  10
21.135
  20
27.137
  42
0
  0
VERTEX
  8
Edge_Top
  10
19.0797
  20
29.1923
  42
0
  0
VERTEX
  8
Edge_Top
  10
18.9601
  20
29.2602
  42
0
  0
VERTEX
  8
Edge_Top
  10
18.8913
  20
29.2703
  42
0
  0
VERTEX
  8
Edge_Top
  10
4.9212
  20
29.2703
  42
0
  0
VERTEX
  8
Edge_Top
  10
4.7886
  20
29.2338
  42
0
  0
VERTEX
  8
Edge_Top
  10
4.7328
  20
29.1923
  42
0
  0
VERTEX
  8
Edge_Top
  10
-0.1884
  20
24.271
  42
0
  0
VERTEX
  8
Edge_Top
  10
-0.2564
  20
24.1514
  42
0
  0
VERTEX
  8
Edge_Top
  10
-0.2665
  20
24.0826
  42
0
  0
VERTEX
  8
Edge_Top
  10
-0.2665
  20
20.4313
  42
0
  0
VERTEX
  8
Edge_Top
  10
-0.23
  20
20.2987
  42
0
  0
VERTEX
  8
Edge_Top
  10
-0.1884
  20
20.2429
  42
0
  0
VERTEX
  8
Edge_Top
  10
3.3852
  20
16.6693
  42
0
  0
VERTEX
  8
Edge_Top
  10
3.3848
  20
11.0576
  42
0
  0
VERTEX
  8
Edge_Top
  10
3.4213
  20
10.9249
  42
0
  0
VERTEX
  8
Edge_Top
  10
3.4628
  20
10.8691
  42
0
  0
VERTEX
  8
Edge_Top
  10
7.1561
  20
7.1759
  42
0
  0
VERTEX
  8
Edge_Top
  10
7.1548
  20
4.8511
  42
0
  0
VERTEX
  8
Edge_Top
  10
9.6578
  20
4.8511
  42
0
  0
VERTEX
  8
Edge_Top
  10
9.6578
  20
7.7541
  42
0
  0
VERTEX
  8
Edge_Top
  10
7.3275
  20
7.7541
  42
0
  0
VERTEX
  8
Edge_Top
  10
6.2023
  20
8.8834
  42
0
  0
VERTEX
  8
Edge_Top
  10
3.9146
  20
11.1711
  42
0
  0
VERTEX
  8
Edge_Top
  10
3.9178
  20
11.8696
  42
0
  0
VERTEX
  8
Edge_Top
  10
3.9178
  20
16.7801
  42
0
  0
VERTEX
  8
Edge_Top
  10
3.8812
  20
16.9127
  42
0
  0
VERTEX
  8
Edge_Top
  10
3.8397
  20
16.9685
  42
0
  0
VERTEX
  8
Edge_Top
  10
0.2661
  20
20.5421
  42
0
  0
VERTEX
  8
Edge_Top
  10
0.2665
  20
23.9707
  42
0
  0
VERTEX
  8
Edge_Top
  10
5.03
  20
28.7357
  42
0
  0
VERTEX
  8
Edge_Top
  10
11.8232
  20
28.7373
  42
0
  0
VERTEX
  8
Edge_Top
  10
18.7802
  20
28.7373
  42
0
  0
VERTEX
  8
Edge_Top
  10
20.6795
  20
26.8387
  42
0
  0
VERTEX
  8
Edge_Top
  10
20.6759
  20
25.6253
  42
0
  0
VERTEX
  8
Edge_Top
  10
17.8043
  20
25.6253
  42
0
  0
VERTEX
  8
Edge_Top
  10
17.7114
  20
25.7653
  42
0
  0
VERTEX
  8
Edge_Top
  10
17.6213
  20
25.8662
  42
0
  0
VERTEX
  8
Edge_Top
  10
17.5175
  20
25.9528
  42
0
  0
VERTEX
  8
Edge_Top
  10
17.4022
  20
26.0234
  42
0
  0
VERTEX
  8
Edge_Top
  10
17.2779
  20
26.0765
  42
0
  0
VERTEX
  8
Edge_Top
  10
17.1471
  20
26.1109
  42
0
  0
VERTEX
  8
Edge_Top
  10
17.0127
  20
26.1259
  42
0
  0
VERTEX
  8
Edge_Top
  10
16.8776
  20
26.1212
  42
0
  0
VERTEX
  8
Edge_Top
  10
16.7446
  20
26.0968
  42
0
  0
VERTEX
  8
Edge_Top
  10
16.6165
  20
26.0534
  42
0
  0
VERTEX
  8
Edge_Top
  10
16.4962
  20
25.9918
  42
0
  0
VERTEX
  8
Edge_Top
  10
16.3861
  20
25.9133
  42
0
  0
VERTEX
  8
Edge_Top
  10
16.2885
  20
25.8197
  42
0
  0
VERTEX
  8
Edge_Top
  10
16.2057
  20
25.7128
  42
0
  0
VERTEX
  8
Edge_Top
  10
16.1393
  20
25.595
  42
0
  0
VERTEX
  8
Edge_Top
  10
16.0907
  20
25.4689
  42
0
  0
VERTEX
  8
Edge_Top
  10
16.061
  20
25.3369
  42
0
  0
VERTEX
  8
Edge_Top
  10
16.0509
  20
25.2001
  42
0
  0
VERTEX
  8
Edge_Top
  10
16.0607
  20
25.0652
  42
0
  0
SEQEND
  0
POLYLINE
  8
Edge_Top
  6
CONTINUOUS
  66
1
  70
0
  40
0.203
  41
0.203
  0
VERTEX
  8
Edge_Top
  10
5.7884
  20
24.8069
  42
0
  0
VERTEX
  8
Edge_Top
  10
5.8546
  20
24.689
  42
0
  0
VERTEX
  8
Edge_Top
  10
5.9372
  20
24.582
  42
0
  0
VERTEX
  8
Edge_Top
  10
6.0345
  20
24.4881
  42
0
  0
VERTEX
  8
Edge_Top
  10
6.1444
  20
24.4094
  42
0
  0
VERTEX
  8
Edge_Top
  10
6.2647
  20
24.3475
  42
0
  0
VERTEX
  8
Edge_Top
  10
6.3926
  20
24.3038
  42
0
  0
VERTEX
  8
Edge_Top
  10
6.5256
  20
24.2792
  42
0
  0
VERTEX
  8
Edge_Top
  10
6.6607
  20
24.2742
  42
0
  0
VERTEX
  8
Edge_Top
  10
6.7951
  20
24.2889
  42
0
  0
VERTEX
  8
Edge_Top
  10
6.9259
  20
24.323
  42
0
  0
VERTEX
  8
Edge_Top
  10
7.0504
  20
24.3758
  42
0
  0
VERTEX
  8
Edge_Top
  10
7.1659
  20
24.4461
  42
0
  0
VERTEX
  8
Edge_Top
  10
7.2699
  20
24.5325
  42
0
  0
VERTEX
  8
Edge_Top
  10
7.3602
  20
24.6332
  42
0
  0
VERTEX
  8
Edge_Top
  10
7.4349
  20
24.7459
  42
0
  0
VERTEX
  8
Edge_Top
  10
7.4924
  20
24.8683
  42
0
  0
VERTEX
  8
Edge_Top
  10
7.5315
  20
24.9977
  42
0
  0
VERTEX
  8
Edge_Top
  10
7.5513
  20
25.1314
  42
0
  0
VERTEX
  8
Edge_Top
  10
7.5515
  20
25.2667
  42
0
  0
VERTEX
  8
Edge_Top
  10
7.5319
  20
25.4005
  42
0
  0
VERTEX
  8
Edge_Top
  10
7.4931
  20
25.53
  42
0
  0
VERTEX
  8
Edge_Top
  10
7.4359
  20
25.6525
  42
0
  0
VERTEX
  8
Edge_Top
  10
7.3614
  20
25.7653
  42
0
  0
VERTEX
  8
Edge_Top
  10
7.2713
  20
25.8662
  42
0
  0
VERTEX
  8
Edge_Top
  10
7.1675
  20
25.9528
  42
0
  0
VERTEX
  8
Edge_Top
  10
7.0522
  20
26.0234
  42
0
  0
VERTEX
  8
Edge_Top
  10
6.9279
  20
26.0765
  42
0
  0
VERTEX
  8
Edge_Top
  10
6.7971
  20
26.1109
  42
0
  0
VERTEX
  8
Edge_Top
  10
6.6627
  20
26.1259
  42
0
  0
VERTEX
  8
Edge_Top
  10
6.5276
  20
26.1212
  42
0
  0
VERTEX
  8
Edge_Top
  10
6.3946
  20
26.0968
  42
0
  0
VERTEX
  8
Edge_Top
  10
6.2665
  20
26.0534
  42
0
  0
VERTEX
  8
Edge_Top
  10
6.1462
  20
25.9918
  42
0
  0
VERTEX
  8
Edge_Top
  10
6.0361
  20
25.9133
  42
0
  0
VERTEX
  8
Edge_Top
  10
5.9385
  20
25.8197
  42
0
  0
VERTEX
  8
Edge_Top
  10
5.8557
  20
25.7128
  42
0
  0
VERTEX
  8
Edge_Top
  10
5.7893
  20
25.595
  42
0
  0
VERTEX
  8
Edge_Top
  10
5.7398
  20
25.4647
  42
0
  0
VERTEX
  8
Edge_Top
  10
4.4348
  20
25.4666
  42
0
  0
VERTEX
  8
Edge_Top
  10
4.3022
  20
25.43
  42
0
  0
VERTEX
  8
Edge_Top
  10
4.2464
  20
25.3885
  42
0
  0
VERTEX
  8
Edge_Top
  10
2.6591
  20
23.8012
  42
0
  0
VERTEX
  8
Edge_Top
  10
2.5912
  20
23.6858
  42
0
  0
VERTEX
  8
Edge_Top
  10
2.5881
  20
23.552
  42
0
  0
VERTEX
  8
Edge_Top
  10
2.6591
  20
23.4244
  42
0
  0
VERTEX
  8
Edge_Top
  10
6.2782
  20
19.7993
  42
0
  0
VERTEX
  8
Edge_Top
  10
4.8817
  20
18.4028
  42
0
  0
VERTEX
  8
Edge_Top
  10
4.8138
  20
18.2874
  42
0
  0
VERTEX
  8
Edge_Top
  10
4.8107
  20
18.1535
  42
0
  0
VERTEX
  8
Edge_Top
  10
4.873
  20
18.035
  42
0
  0
VERTEX
  8
Edge_Top
  10
4.9892
  20
17.9615
  42
0
  0
VERTEX
  8
Edge_Top
  10
5.0701
  20
17.9478
  42
0
  0
VERTEX
  8
Edge_Top
  10
10.8345
  20
17.9478
  42
0
  0
VERTEX
  8
Edge_Top
  10
11.6739
  20
17.1078
  42
0
  0
VERTEX
  8
Edge_Top
  10
11.6706
  20
16.6421
  42
0
  0
VERTEX
  8
Edge_Top
  10
11.5048
  20
16.5664
  42
0
  0
VERTEX
  8
Edge_Top
  10
11.3942
  20
16.4888
  42
0
  0
VERTEX
  8
Edge_Top
  10
11.2972
  20
16.3946
  42
0
  0
VERTEX
  8
Edge_Top
  10
11.2164
  20
16.2862
  42
0
  0
VERTEX
  8
Edge_Top
  10
11.1537
  20
16.1664
  42
0
  0
VERTEX
  8
Edge_Top
  10
11.1107
  20
16.0383
  42
0
  0
VERTEX
  8
Edge_Top
  10
11.0856
  20
15.8328
  42
0
  0
VERTEX
  8
Edge_Top
  10
11.0963
  20
15.6981
  42
0
  0
VERTEX
  8
Edge_Top
  10
11.1283
  20
15.5667
  42
0
  0
VERTEX
  8
Edge_Top
  10
11.1806
  20
15.442
  42
0
  0
VERTEX
  8
Edge_Top
  10
11.252
  20
15.3272
  42
0
  0
VERTEX
  8
Edge_Top
  10
11.3406
  20
15.2252
  42
0
  0
VERTEX
  8
Edge_Top
  10
11.4443
  20
15.1384
  42
0
  0
VERTEX
  8
Edge_Top
  10
11.5604
  20
15.0692
  42
0
  0
VERTEX
  8
Edge_Top
  10
11.686
  20
15.0192
  42
0
  0
VERTEX
  8
Edge_Top
  10
11.818
  20
14.9897
  42
0
  0
VERTEX
  8
Edge_Top
  10
11.9529
  20
14.9815
  42
0
  0
VERTEX
  8
Edge_Top
  10
12.0874
  20
14.9947
  42
0
  0
VERTEX
  8
Edge_Top
  10
12.2182
  20
15.0291
  42
0
  0
VERTEX
  8
Edge_Top
  10
12.3419
  20
15.0837
  42
0
  0
VERTEX
  8
Edge_Top
  10
12.4553
  20
15.1572
  42
0
  0
VERTEX
  8
Edge_Top
  10
12.5557
  20
15.2477
  42
0
  0
VERTEX
  8
Edge_Top
  10
12.6405
  20
15.353
  42
0
  0
VERTEX
  8
Edge_Top
  10
12.7076
  20
15.4704
  42
0
  0
VERTEX
  8
Edge_Top
  10
12.7553
  20
15.5969
  42
0
  0
VERTEX
  8
Edge_Top
  10
12.7823
  20
15.7294
  42
0
  0
VERTEX
  8
Edge_Top
  10
12.788
  20
15.8644
  42
0
  0
VERTEX
  8
Edge_Top
  10
12.7723
  20
15.9987
  42
0
  0
VERTEX
  8
Edge_Top
  10
12.7355
  20
16.1288
  42
0
  0
VERTEX
  8
Edge_Top
  10
12.6786
  20
16.2514
  42
0
  0
VERTEX
  8
Edge_Top
  10
12.603
  20
16.3635
  42
0
  0
VERTEX
  8
Edge_Top
  10
12.5106
  20
16.4622
  42
0
  0
VERTEX
  8
Edge_Top
  10
12.4038
  20
16.545
  42
0
  0
VERTEX
  8
Edge_Top
  10
12.2852
  20
16.6099
  42
0
  0
VERTEX
  8
Edge_Top
  10
12.2036
  20
16.6448
  42
0
  0
VERTEX
  8
Edge_Top
  10
12.2036
  20
17.2215
  42
0
  0
VERTEX
  8
Edge_Top
  10
12.1671
  20
17.3541
  42
0
  0
VERTEX
  8
Edge_Top
  10
12.1255
  20
17.4099
  42
0
  0
VERTEX
  8
Edge_Top
  10
11.1327
  20
18.4028
  42
0
  0
VERTEX
  8
Edge_Top
  10
11.0131
  20
18.4707
  42
0
  0
VERTEX
  8
Edge_Top
  10
10.9442
  20
18.4808
  42
0
  0
VERTEX
  8
Edge_Top
  10
5.7128
  20
18.4808
  42
0
  0
VERTEX
  8
Edge_Top
  10
6.7688
  20
19.5361
  42
0
  0
VERTEX
  8
Edge_Top
  10
23.6297
  20
19.5358
  42
0
  0
VERTEX
  8
Edge_Top
  10
23.6837
  20
19.4115
  42
0
  0
VERTEX
  8
Edge_Top
  10
23.7551
  20
19.2967
  42
0
  0
VERTEX
  8
Edge_Top
  10
23.8437
  20
19.1946
  42
0
  0
VERTEX
  8
Edge_Top
  10
23.9474
  20
19.1079
  42
0
  0
VERTEX
  8
Edge_Top
  10
24.0635
  20
19.0386
  42
0
  0
VERTEX
  8
Edge_Top
  10
24.1891
  20
18.9886
  42
0
  0
VERTEX
  8
Edge_Top
  10
24.3211
  20
18.9591
  42
0
  0
VERTEX
  8
Edge_Top
  10
24.456
  20
18.9509
  42
0
  0
VERTEX
  8
Edge_Top
  10
24.5905
  20
18.9641
  42
0
  0
VERTEX
  8
Edge_Top
  10
24.7213
  20
18.9985
  42
0
  0
VERTEX
  8
Edge_Top
  10
24.845
  20
19.0531
  42
0
  0
VERTEX
  8
Edge_Top
  10
24.9584
  20
19.1266
  42
0
  0
VERTEX
  8
Edge_Top
  10
25.0588
  20
19.2172
  42
0
  0
VERTEX
  8
Edge_Top
  10
25.1436
  20
19.3224
  42
0
  0
VERTEX
  8
Edge_Top
  10
25.2107
  20
19.4398
  42
0
  0
VERTEX
  8
Edge_Top
  10
25.2584
  20
19.5663
  42
0
  0
VERTEX
  8
Edge_Top
  10
25.2854
  20
19.6988
  42
0
  0
VERTEX
  8
Edge_Top
  10
25.2911
  20
19.8339
  42
0
  0
VERTEX
  8
Edge_Top
  10
25.2754
  20
19.9681
  42
0
  0
VERTEX
  8
Edge_Top
  10
25.2386
  20
20.0982
  42
0
  0
VERTEX
  8
Edge_Top
  10
25.1817
  20
20.2209
  42
0
  0
VERTEX
  8
Edge_Top
  10
25.1061
  20
20.3329
  42
0
  0
VERTEX
  8
Edge_Top
  10
25.0137
  20
20.4316
  42
0
  0
VERTEX
  8
Edge_Top
  10
24.9069
  20
20.5145
  42
0
  0
VERTEX
  8
Edge_Top
  10
24.7883
  20
20.5794
  42
0
  0
VERTEX
  8
Edge_Top
  10
24.6609
  20
20.6247
  42
0
  0
VERTEX
  8
Edge_Top
  10
24.528
  20
20.6492
  42
0
  0
VERTEX
  8
Edge_Top
  10
24.3928
  20
20.6524
  42
0
  0
VERTEX
  8
Edge_Top
  10
24.2589
  20
20.6342
  42
0
  0
VERTEX
  8
Edge_Top
  10
24.1295
  20
20.595
  42
0
  0
VERTEX
  8
Edge_Top
  10
24.0079
  20
20.5359
  42
0
  0
VERTEX
  8
Edge_Top
  10
23.8973
  20
20.4582
  42
0
  0
VERTEX
  8
Edge_Top
  10
23.8003
  20
20.364
  42
0
  0
VERTEX
  8
Edge_Top
  10
23.7195
  20
20.2557
  42
0
  0
VERTEX
  8
Edge_Top
  10
23.6568
  20
20.1359
  42
0
  0
VERTEX
  8
Edge_Top
  10
23.6282
  20
20.0688
  42
0
  0
VERTEX
  8
Edge_Top
  10
6.7665
  20
20.0688
  42
0
  0
VERTEX
  8
Edge_Top
  10
3.225
  20
23.6122
  42
0
  0
VERTEX
  8
Edge_Top
  10
4.5462
  20
24.9345
  42
0
  0
VERTEX
  8
Edge_Top
  10
5.7401
  20
24.9332
  42
0
  0
VERTEX
  8
Edge_Top
  10
5.7884
  20
24.8069
  42
0
  0
SEQEND
  0
POLYLINE
  8
Edge_Top
  6
CONTINUOUS
  66
1
  70
0
  40
0.203
  41
0.203
  0
VERTEX
  8
Edge_Top
  10
8.5963
  20
15.6981
  42
0
  0
VERTEX
  8
Edge_Top
  10
8.6283
  20
15.5667
  42
0
  0
VERTEX
  8
Edge_Top
  10
8.6806
  20
15.442
  42
0
  0
VERTEX
  8
Edge_Top
  10
8.752
  20
15.3272
  42
0
  0
VERTEX
  8
Edge_Top
  10
8.8406
  20
15.2252
  42
0
  0
VERTEX
  8
Edge_Top
  10
8.9443
  20
15.1384
  42
0
  0
VERTEX
  8
Edge_Top
  10
9.0604
  20
15.0692
  42
0
  0
VERTEX
  8
Edge_Top
  10
9.186
  20
15.0192
  42
0
  0
VERTEX
  8
Edge_Top
  10
9.318
  20
14.9897
  42
0
  0
VERTEX
  8
Edge_Top
  10
9.4529
  20
14.9815
  42
0
  0
VERTEX
  8
Edge_Top
  10
9.5874
  20
14.9947
  42
0
  0
VERTEX
  8
Edge_Top
  10
9.7182
  20
15.0291
  42
0
  0
VERTEX
  8
Edge_Top
  10
9.8419
  20
15.0837
  42
0
  0
VERTEX
  8
Edge_Top
  10
9.9553
  20
15.1572
  42
0
  0
VERTEX
  8
Edge_Top
  10
10.0557
  20
15.2477
  42
0
  0
VERTEX
  8
Edge_Top
  10
10.1405
  20
15.353
  42
0
  0
VERTEX
  8
Edge_Top
  10
10.2076
  20
15.4704
  42
0
  0
VERTEX
  8
Edge_Top
  10
10.2553
  20
15.5969
  42
0
  0
VERTEX
  8
Edge_Top
  10
10.2823
  20
15.7294
  42
0
  0
VERTEX
  8
Edge_Top
  10
10.288
  20
15.8644
  42
0
  0
VERTEX
  8
Edge_Top
  10
10.2723
  20
15.9987
  42
0
  0
VERTEX
  8
Edge_Top
  10
10.2355
  20
16.1288
  42
0
  0
VERTEX
  8
Edge_Top
  10
10.1786
  20
16.2514
  42
0
  0
VERTEX
  8
Edge_Top
  10
10.103
  20
16.3635
  42
0
  0
VERTEX
  8
Edge_Top
  10
10.0106
  20
16.4622
  42
0
  0
VERTEX
  8
Edge_Top
  10
9.9038
  20
16.545
  42
0
  0
VERTEX
  8
Edge_Top
  10
9.7852
  20
16.6099
  42
0
  0
VERTEX
  8
Edge_Top
  10
9.6578
  20
16.6552
  42
0
  0
VERTEX
  8
Edge_Top
  10
9.5249
  20
16.6798
  42
0
  0
VERTEX
  8
Edge_Top
  10
9.3897
  20
16.683
  42
0
  0
VERTEX
  8
Edge_Top
  10
9.2558
  20
16.6648
  42
0
  0
VERTEX
  8
Edge_Top
  10
9.1264
  20
16.6256
  42
0
  0
VERTEX
  8
Edge_Top
  10
9.0048
  20
16.5664
  42
0
  0
VERTEX
  8
Edge_Top
  10
8.8942
  20
16.4888
  42
0
  0
VERTEX
  8
Edge_Top
  10
8.7972
  20
16.3946
  42
0
  0
VERTEX
  8
Edge_Top
  10
8.7164
  20
16.2862
  42
0
  0
VERTEX
  8
Edge_Top
  10
8.6537
  20
16.1664
  42
0
  0
VERTEX
  8
Edge_Top
  10
8.6107
  20
16.0383
  42
0
  0
VERTEX
  8
Edge_Top
  10
8.5856
  20
15.8328
  42
0
  0
VERTEX
  8
Edge_Top
  10
8.5963
  20
15.6981
  42
0
  0
SEQEND
  0
POLYLINE
  8
Edge_Top
  6
CONTINUOUS
  66
1
  70
0
  40
0.203
  41
0.203
  0
VERTEX
  8
Edge_Top
  10
47.2549
  20
0.6152
  42
0
  0
VERTEX
  8
Edge_Top
  10
47.2868
  20
0.4839
  42
0
  0
VERTEX
  8
Edge_Top
  10
47.3391
  20
0.3592
  42
0
  0
VERTEX
  8
Edge_Top
  10
47.4105
  20
0.2444
  42
0
  0
VERTEX
  8
Edge_Top
  10
47.4991
  20
0.1423
  42
0
  0
VERTEX
  8
Edge_Top
  10
47.6028
  20
0.0556
  42
0
  0
VERTEX
  8
Edge_Top
  10
47.7189
  20
-0.0136
  42
0
  0
VERTEX
  8
Edge_Top
  10
47.8446
  20
-0.0636
  42
0
  0
VERTEX
  8
Edge_Top
  10
47.9765
  20
-0.0931
  42
0
  0
VERTEX
  8
Edge_Top
  10
48.1114
  20
-0.1014
  42
0
  0
VERTEX
  8
Edge_Top
  10
48.246
  20
-0.0881
  42
0
  0
VERTEX
  8
Edge_Top
  10
48.3767
  20
-0.0538
  42
0
  0
VERTEX
  8
Edge_Top
  10
48.5004
  20
0.0009
  42
0
  0
VERTEX
  8
Edge_Top
  10
48.6139
  20
0.0744
  42
0
  0
VERTEX
  8
Edge_Top
  10
48.7143
  20
0.1649
  42
0
  0
VERTEX
  8
Edge_Top
  10
48.7991
  20
0.2702
  42
0
  0
VERTEX
  8
Edge_Top
  10
48.8661
  20
0.3875
  42
0
  0
VERTEX
  8
Edge_Top
  10
48.9138
  20
0.5141
  42
0
  0
VERTEX
  8
Edge_Top
  10
48.9408
  20
0.6465
  42
0
  0
VERTEX
  8
Edge_Top
  10
48.9465
  20
0.7816
  42
0
  0
VERTEX
  8
Edge_Top
  10
48.9308
  20
0.9159
  42
0
  0
VERTEX
  8
Edge_Top
  10
48.894
  20
1.046
  42
0
  0
VERTEX
  8
Edge_Top
  10
48.8371
  20
1.1686
  42
0
  0
VERTEX
  8
Edge_Top
  10
48.7615
  20
1.2807
  42
0
  0
VERTEX
  8
Edge_Top
  10
48.6692
  20
1.3794
  42
0
  0
VERTEX
  8
Edge_Top
  10
48.5623
  20
1.4622
  42
0
  0
VERTEX
  8
Edge_Top
  10
48.4437
  20
1.5271
  42
0
  0
VERTEX
  8
Edge_Top
  10
48.3164
  20
1.5724
  42
0
  0
VERTEX
  8
Edge_Top
  10
48.1834
  20
1.597
  42
0
  0
VERTEX
  8
Edge_Top
  10
48.0483
  20
1.6002
  42
0
  0
VERTEX
  8
Edge_Top
  10
47.9143
  20
1.582
  42
0
  0
VERTEX
  8
Edge_Top
  10
47.7849
  20
1.5428
  42
0
  0
VERTEX
  8
Edge_Top
  10
47.6634
  20
1.4836
  42
0
  0
VERTEX
  8
Edge_Top
  10
47.5527
  20
1.406
  42
0
  0
VERTEX
  8
Edge_Top
  10
47.4557
  20
1.3118
  42
0
  0
VERTEX
  8
Edge_Top
  10
47.3749
  20
1.2034
  42
0
  0
VERTEX
  8
Edge_Top
  10
47.3122
  20
1.0836
  42
0
  0
VERTEX
  8
Edge_Top
  10
47.2693
  20
0.9554
  42
0
  0
VERTEX
  8
Edge_Top
  10
47.2441
  20
0.75
  42
0
  0
VERTEX
  8
Edge_Top
  10
47.2549
  20
0.6152
  42
0
  0
SEQEND
  0
ENDSEC
  0
EOF
